<svg version="1.1" xmlns="http://www.w3.org/2000/svg" viewBox="0 0 1540.9747954400787 1130.9025266434592" width="1540.9747954400787" height="1130.9025266434592">
  <!-- svg-source:excalidraw -->
  
  <defs>
    <style class="style-fonts">
      @font-face {
        font-family: "Virgil";
        src: url("https://excalidraw.com/Virgil.woff2");
      }
      @font-face {
        font-family: "Cascadia";
        src: url("https://excalidraw.com/Cascadia.woff2");
      }
      @font-face {
        font-family: "Assistant";
        src: url("https://excalidraw.com/Assistant-Regular.woff2");
      }
    </style>
    
  </defs>
  <g stroke-linecap="round" transform="translate(10 376.99251089006884) rotate(0 213.43379282061045 101.53646454572754)"><path d="M32 0 C107.04 2.75, 179.81 2.21, 394.87 0 M32 0 C127.18 -0.44, 223.74 -1.66, 394.87 0 M394.87 0 C415.71 -1.96, 426.12 8.94, 426.87 32 M394.87 0 C415.29 -0.85, 426.41 10.62, 426.87 32 M426.87 32 C427.05 59.18, 424.08 89.9, 426.87 171.07 M426.87 32 C426.56 63.73, 425.59 96.9, 426.87 171.07 M426.87 171.07 C428.51 193.76, 416.28 202.53, 394.87 203.07 M426.87 171.07 C427.85 194.55, 416.36 202.79, 394.87 203.07 M394.87 203.07 C254.78 205.18, 111.65 206.31, 32 203.07 M394.87 203.07 C289.07 202.16, 181.93 202.3, 32 203.07 M32 203.07 C11.85 204.78, -1.08 191.56, 0 171.07 M32 203.07 C9.18 204.93, -1.53 191.75, 0 171.07 M0 171.07 C0.68 124.46, -1.67 75.55, 0 32 M0 171.07 C-1.95 118.19, -1.31 65.13, 0 32 M0 32 C-0.92 10.45, 12.02 -1.64, 32 0 M0 32 C-0.45 8.52, 8.42 1.78, 32 0" stroke="#1e1e1e" stroke-width="2" fill="none"></path></g><g transform="translate(166.0119178206104 461.7289754357962) rotate(0 57.421875 16.800000000000182)"><text x="57.421875" y="27.0375" font-family="Cascadia, Segoe UI Emoji" font-size="28px" fill="#1e1e1e" text-anchor="middle" style="white-space: pre;" direction="ltr" dominant-baseline="alphabetic">Message</text></g><g stroke-linecap="round" transform="translate(1104.1072097988576 379.064683635901) rotate(0 213.4337928206105 101.53646454572754)"><path d="M32 0 C170.78 -0.67, 309.4 1.34, 394.87 0 M32 0 C176.56 0.34, 321.87 -0.04, 394.87 0 M394.87 0 C415.69 0.11, 426.1 10.75, 426.87 32 M394.87 0 C414.69 1.21, 427.26 9.39, 426.87 32 M426.87 32 C426.78 78.75, 428.6 125.97, 426.87 171.07 M426.87 32 C427.72 85.84, 427.25 140.73, 426.87 171.07 M426.87 171.07 C428.46 193.75, 415.75 201.57, 394.87 203.07 M426.87 171.07 C427.86 194.52, 417.7 204.56, 394.87 203.07 M394.87 203.07 C257.21 206.01, 120.76 204.57, 32 203.07 M394.87 203.07 C306.92 201.95, 219.07 202.8, 32 203.07 M32 203.07 C11.62 201.3, 0.06 192.11, 0 171.07 M32 203.07 C11.83 204.78, 2.08 194.29, 0 171.07 M0 171.07 C-1.02 143.94, 0.38 112.37, 0 32 M0 171.07 C0.95 133.91, 1.22 95.88, 0 32 M0 32 C1.02 11.72, 11.74 -0.28, 32 0 M0 32 C0.7 8.86, 9.29 -0.64, 32 0" stroke="#1e1e1e" stroke-width="2" fill="none"></path></g><g transform="translate(1284.7285026194681 463.8011481816284) rotate(0 32.8125 16.800000000000182)"><text x="32.8125" y="27.0375" font-family="Cascadia, Segoe UI Emoji" font-size="28px" fill="#1e1e1e" text-anchor="middle" style="white-space: pre;" direction="ltr" dominant-baseline="alphabetic">User</text></g><g stroke-linecap="round" transform="translate(1104.1072097988572 917.8295975520041) rotate(0 213.4337928206105 101.53646454572754)"><path d="M32 0 C152.59 0.49, 274.99 -0.96, 394.87 0 M32 0 C166.13 -1.71, 300.81 -1.49, 394.87 0 M394.87 0 C417.46 -0.49, 427.24 8.78, 426.87 32 M394.87 0 C415.51 1.95, 424.76 8.65, 426.87 32 M426.87 32 C427.68 64.82, 426.42 97.3, 426.87 171.07 M426.87 32 C426.55 79.68, 425.49 128.22, 426.87 171.07 M426.87 171.07 C425.54 192.41, 417.43 202.34, 394.87 203.07 M426.87 171.07 C426.54 192.84, 416.31 200.94, 394.87 203.07 M394.87 203.07 C302.19 203.05, 210.95 202.66, 32 203.07 M394.87 203.07 C259.79 202.26, 123.9 202.41, 32 203.07 M32 203.07 C12.27 204.62, 1.08 191.24, 0 171.07 M32 203.07 C10.06 201.76, -1.84 190.89, 0 171.07 M0 171.07 C2.17 121.46, 1.14 74.25, 0 32 M0 171.07 C-1.87 133.9, -1.58 97.77, 0 32 M0 32 C-1.51 9.96, 11.44 -0.78, 32 0 M0 32 C-1.05 9.07, 8.7 -2.07, 32 0" stroke="#1e1e1e" stroke-width="2" fill="none"></path></g><g transform="translate(1284.7285026194677 1002.5660620977314) rotate(0 32.8125 16.800000000000182)"><text x="32.8125" y="27.0375" font-family="Cascadia, Segoe UI Emoji" font-size="28px" fill="#1e1e1e" text-anchor="middle" style="white-space: pre;" direction="ltr" dominant-baseline="alphabetic">Chat</text></g><g stroke-linecap="round" transform="translate(664.8065876826494 395.64206560255025) rotate(0 112.93341464779883 90.43303647498715)"><path d="M141.25 22.75 C155.94 36.15, 171.28 47.84, 197.62 68.25 M141.25 22.75 C161.67 38.89, 182.45 54.42, 197.62 68.25 M197.62 68.25 C225.52 90.3, 225.02 91.89, 197.62 113.75 M197.62 68.25 C223.94 92.62, 224.18 89.45, 197.62 113.75 M197.62 113.75 C188.16 121.64, 174.12 131.36, 141.25 158.12 M197.62 113.75 C180.77 126.99, 162.83 142.03, 141.25 158.12 M141.25 158.12 C114.87 180.59, 111.79 180.56, 84.75 158.12 M141.25 158.12 C114.13 182.77, 114.04 181.17, 84.75 158.12 M84.75 158.12 C72.53 146.98, 60.61 138.18, 28.25 113.75 M84.75 158.12 C66.13 141.91, 46.01 127.22, 28.25 113.75 M28.25 113.75 C1.74 91.68, 0.65 90.88, 28.25 68.25 M28.25 113.75 C2.01 91.95, 0.07 91.58, 28.25 68.25 M28.25 68.25 C41.9 55.4, 54.73 43.75, 84.75 22.75 M28.25 68.25 C42.77 57.11, 57.49 45.3, 84.75 22.75 M84.75 22.75 C114.12 -0.59, 113.48 -0.51, 141.25 22.75 M84.75 22.75 C112.26 -0.45, 114.1 -1.75, 141.25 22.75" stroke="#1e1e1e" stroke-width="2" fill="none"></path></g><g transform="translate(736.7576700065487 469.05858384004387) rotate(0 41.015625 16.800000000000182)"><text x="41.015625" y="27.0375" font-family="Cascadia, Segoe UI Emoji" font-size="28px" fill="#1e1e1e" text-anchor="middle" style="white-space: pre;" direction="ltr" dominant-baseline="alphabetic">envia</text></g><g stroke-linecap="round"><g transform="translate(434.79541289538963 482.6733209274589) rotate(0 115.29484074882555 -0.1064529839172792)"><path d="M-0.18 -1.07 C38.53 -1.41, 193.72 -1.15, 232.32 -1.06 M-1.73 0.99 C36.83 1.27, 192.83 0.01, 231.5 -0.08" stroke="#1e1e1e" stroke-width="2" fill="none"></path></g></g><mask></mask><g stroke-linecap="round"><g transform="translate(878.2403805032599 484.7454936732902) rotate(0 112.9923737528602 2.990450062628952)"><path d="M0.44 -0.63 C38.05 0.32, 189.35 5.57, 226.78 6.61 M-0.79 1.66 C36.64 2.15, 188.26 3.87, 226.31 4.69" stroke="#1e1e1e" stroke-width="2" fill="none"></path></g></g><mask></mask><g transform="translate(753.9100157533898 345.90991970260256) rotate(0 24.609375 16.800000000000182)"><text x="0" y="27.0375" font-family="Cascadia, Segoe UI Emoji" font-size="28px" fill="#1e1e1e" text-anchor="start" style="white-space: pre;" direction="ltr" dominant-baseline="alphabetic">1:N</text></g><g stroke-linecap="round" transform="translate(661.6983285639029 66.90916335697875) rotate(0 112.93341464779883 90.43303647498715)"><path d="M141.25 22.75 C153.47 33.43, 165.12 44.51, 197.62 68.25 M141.25 22.75 C164.2 41.15, 185.27 57.9, 197.62 68.25 M197.62 68.25 C225.81 90.11, 227.78 92.07, 197.62 113.75 M197.62 68.25 C226.65 92.93, 227.14 89.16, 197.62 113.75 M197.62 113.75 C175.64 131.75, 154.16 146.87, 141.25 158.12 M197.62 113.75 C182.18 125.44, 168.05 136.93, 141.25 158.12 M141.25 158.12 C111.67 180.35, 112.68 182.13, 84.75 158.12 M141.25 158.12 C113.38 178.58, 115.3 181.13, 84.75 158.12 M84.75 158.12 C73.53 150.52, 58.91 139.09, 28.25 113.75 M84.75 158.12 C64.32 141.95, 43.11 125.81, 28.25 113.75 M28.25 113.75 C0.5 92.88, -0.42 90.64, 28.25 68.25 M28.25 113.75 C0.44 93.25, 0.32 90.9, 28.25 68.25 M28.25 68.25 C47.28 51.74, 67.86 36.19, 84.75 22.75 M28.25 68.25 C45.26 54.14, 62.27 39.55, 84.75 22.75 M84.75 22.75 C114.48 1.38, 113.64 -0.88, 141.25 22.75 M84.75 22.75 C111.48 1.66, 111.19 1.85, 141.25 22.75" stroke="#1e1e1e" stroke-width="2" fill="none"></path></g><g transform="translate(750.0556608878022 140.32568159447237) rotate(0 24.609375 16.800000000000182)"><text x="24.609375" y="27.0375" font-family="Cascadia, Segoe UI Emoji" font-size="28px" fill="#1e1e1e" text-anchor="middle" style="white-space: pre;" direction="ltr" dominant-baseline="alphabetic">lee</text></g><g stroke-linecap="round"><g transform="translate(229.65031105810385 370.77599265257595) rotate(0 218.1724401546083 -106.8818723170275)"><path d="M-0.24 1.13 C72.45 -34.4, 363.03 -177.3, 436.06 -213 M-1.82 0.68 C71.23 -35.24, 364.92 -178.91, 438.16 -214.89" stroke="#1e1e1e" stroke-width="2" fill="none"></path></g></g><mask></mask><g stroke-linecap="round"><g transform="translate(876.1682077574286 157.34219983196544) rotate(0 216.17958325709048 109.85365764984135)"><path d="M0.04 1.07 C72.37 37.36, 361.4 181.63, 433.76 217.58 M-1.4 0.58 C70.85 37.1, 360.59 182.93, 433.17 219.13" stroke="#1e1e1e" stroke-width="2" fill="none"></path></g></g><mask></mask><g transform="translate(747.693497515896 10) rotate(0 24.609375 16.800000000000182)"><text x="0" y="27.0375" font-family="Cascadia, Segoe UI Emoji" font-size="28px" fill="#1e1e1e" text-anchor="start" style="white-space: pre;" direction="ltr" dominant-baseline="alphabetic">N:M</text></g><g stroke-linecap="round" transform="translate(449.30062211620805 760.1265339908841) rotate(0 171.9903379039872 130.54688298736392)"><path d="M215 32.75 C245.7 58.03, 276.41 79.45, 300.98 98.25 M215 32.75 C233.47 47.31, 253.13 61.11, 300.98 98.25 M300.98 98.25 C345.77 131.76, 342.41 131.48, 300.98 163.75 M300.98 98.25 C345.93 133.24, 345.65 130.01, 300.98 163.75 M300.98 163.75 C274.37 184.17, 249.59 202.11, 215 228.34 M300.98 163.75 C270.45 186.71, 240.61 208.48, 215 228.34 M215 228.34 C170.15 259.25, 173.18 261.88, 129 228.34 M215 228.34 C170.18 262.51, 171.7 258.9, 129 228.34 M129 228.34 C103.79 208.9, 82.39 194.13, 43 163.75 M129 228.34 C105.11 210.65, 81.7 193.14, 43 163.75 M43 163.75 C-0.24 129.3, -0.3 130.33, 43 98.25 M43 163.75 C0.58 131.82, 1.73 130.07, 43 98.25 M43 98.25 C73.5 76.64, 102.94 52.03, 129 32.75 M43 98.25 C75.89 74.44, 108.42 48.71, 129 32.75 M129 32.75 C172.9 0.28, 171.2 -1.89, 215 32.75 M129 32.75 C174.23 0.53, 173.49 2.08, 215 32.75" stroke="#1e1e1e" stroke-width="2" fill="none"></path></g><g transform="translate(547.4676660682018 874.0999754845661) rotate(0 73.828125 16.800000000000182)"><text x="73.828125" y="27.0375" font-family="Cascadia, Segoe UI Emoji" font-size="28px" fill="#1e1e1e" text-anchor="middle" style="white-space: pre;" direction="ltr" dominant-baseline="alphabetic">pertenece</text></g><g stroke-linecap="round"><g transform="translate(246.2276930247533 583.9918505952337) rotate(0 147.5164039701047 116.46424413001478)"><path d="M0.54 1.09 C49.25 39.97, 244.31 193.8, 293.4 232.32 M-0.63 0.61 C48.35 39.2, 246.44 191.5, 295.66 230.32" stroke="#1e1e1e" stroke-width="2" fill="none"></path></g></g><mask></mask><g stroke-linecap="round"><g transform="translate(701.7135580915186 952.4160289897136) rotate(0 196.78179389017214 33.46768590424699)"><path d="M-0.75 -0.35 C65.04 10.84, 328.62 56.04, 394.32 67.46 M1.05 -1.57 C66.79 9.71, 328.44 56.69, 393.68 68.51" stroke="#1e1e1e" stroke-width="2" fill="none"></path></g></g><mask></mask><g stroke-linecap="round" transform="translate(1198.3910697341757 646.8995973117526) rotate(0 112.93341464779883 90.43303647498715)"><path d="M141.25 22.75 C161.22 38.08, 176.95 52.36, 197.62 68.25 M141.25 22.75 C153.25 31.14, 164.64 42.05, 197.62 68.25 M197.62 68.25 C224.49 89.91, 224.91 91.18, 197.62 113.75 M197.62 68.25 C223.85 90.44, 224.6 89.4, 197.62 113.75 M197.62 113.75 C186.09 124.81, 170.93 135.26, 141.25 158.12 M197.62 113.75 C174.43 131.12, 153.21 148.89, 141.25 158.12 M141.25 158.12 C113.46 179.46, 112.03 180.7, 84.75 158.12 M141.25 158.12 C114.8 179.85, 112.69 182.89, 84.75 158.12 M84.75 158.12 C64.44 143.88, 44.92 128.98, 28.25 113.75 M84.75 158.12 C64.57 141.06, 44.51 124.83, 28.25 113.75 M28.25 113.75 C1.59 89.57, 1.36 90.25, 28.25 68.25 M28.25 113.75 C0.42 92.62, 0.78 90.45, 28.25 68.25 M28.25 68.25 C42 60.36, 54.55 48.12, 84.75 22.75 M28.25 68.25 C41.17 57.67, 51.95 48.74, 84.75 22.75 M84.75 22.75 C112.14 0.62, 112.1 -1.9, 141.25 22.75 M84.75 22.75 C114.67 -1, 110.86 -1.23, 141.25 22.75" stroke="#1e1e1e" stroke-width="2" fill="none"></path></g><g transform="translate(1270.342152058075 720.3161155492462) rotate(0 41.015625 16.800000000000182)"><text x="41.015625" y="27.0375" font-family="Cascadia, Segoe UI Emoji" font-size="28px" fill="#1e1e1e" text-anchor="middle" style="white-space: pre;" direction="ltr" dominant-baseline="alphabetic">tiene</text></g><g stroke-linecap="round"><g transform="translate(1311.3244843819743 654.445723953494) rotate(0 -0.1535685239111899 -34.591315754042625)"><path d="M0.48 -0.27 C0.66 -11.91, 0.19 -57.43, 0.08 -68.92 M-0.73 -1.45 C-0.61 -13.02, -0.77 -56.52, -0.83 -67.66" stroke="#1e1e1e" stroke-width="2" fill="none"></path></g></g><mask></mask><g stroke-linecap="round"><g transform="translate(1319.613175365299 824.3638891116498) rotate(0 -2.7481037866581346 45.64583565084331)"><path d="M-1.07 0.29 C-2 15.21, -4.64 75.44, -5.49 90.64 M0.57 -0.6 C-0.47 14.99, -4.8 76.3, -6.06 91.89" stroke="#1e1e1e" stroke-width="2" fill="none"></path></g></g><mask></mask><g transform="translate(1454.3044038443254 716.6109063284293) rotate(0 24.609375 16.800000000000182)"><text x="0" y="27.0375" font-family="Cascadia, Segoe UI Emoji" font-size="28px" fill="#1e1e1e" text-anchor="start" style="white-space: pre;" direction="ltr" dominant-baseline="alphabetic">N:M</text></g><g transform="translate(588.1361960868966 1031.5811636947674) rotate(0 24.609375 16.800000000000182)"><text x="0" y="27.0375" font-family="Cascadia, Segoe UI Emoji" font-size="28px" fill="#1e1e1e" text-anchor="start" style="white-space: pre;" direction="ltr" dominant-baseline="alphabetic">1:N</text></g></svg>