<svg xmlns="http://www.w3.org/2000/svg" xmlns:xlink="http://www.w3.org/1999/xlink" contentStyleType="text/css" height="491px" preserveAspectRatio="none" style="width:411px;height:491px;background:#FFFFFF;" version="1.1" viewBox="0 0 411 491" width="411px" zoomAndPan="magnify"><defs/><g><!--class chat--><g id="elem_chat"><rect codeLine="1" fill="#F1F1F1" height="113.1875" id="chat" rx="2.5" ry="2.5" style="stroke:#181818;stroke-width:0.5;" width="158" x="7" y="7"/><ellipse cx="66.75" cy="23" fill="#ADD1B2" rx="11" ry="11" style="stroke:#181818;stroke-width:1.0;"/><path d="M70.8594,29 L63.1406,29 L63.1406,16.6094 L70.8594,16.6094 L70.8594,18.7656 L65.5938,18.7656 L65.5938,21.4375 L70.3594,21.4375 L70.3594,23.5938 L65.5938,23.5938 L65.5938,26.8438 L70.8594,26.8438 L70.8594,29 Z " fill="#000000"/><text fill="#000000" font-family="sans-serif" font-size="14" lengthAdjust="spacing" textLength="30" x="87.25" y="27.8467">chat</text><line style="stroke:#181818;stroke-width:0.5;" x1="8" x2="164" y1="39" y2="39"/><ellipse cx="18" cy="52.6484" fill="#000000" rx="3" ry="3" style="stroke:#000000;stroke-width:1.0;"/><text fill="#000000" font-family="sans-serif" font-size="14" lengthAdjust="spacing" textLength="82" x="27" y="55.9951">id : int &#171;PK&#187;</text><text fill="#000000" font-family="sans-serif" font-size="14" lengthAdjust="spacing" textLength="10" x="27" y="72.292">--</text><text fill="#000000" font-family="sans-serif" font-size="14" lengthAdjust="spacing" textLength="132" x="27" y="88.5889">group_chat : tinyint</text><text fill="#000000" font-family="sans-serif" font-size="14" lengthAdjust="spacing" textLength="102" x="27" y="104.8857">name : varchar</text><line style="stroke:#181818;stroke-width:0.5;" x1="8" x2="164" y1="112.1875" y2="112.1875"/></g><!--class chat_participants--><g id="elem_chat_participants"><rect codeLine="8" fill="#F1F1F1" height="80.5938" id="chat_participants" rx="2.5" ry="2.5" style="stroke:#181818;stroke-width:0.5;" width="149" x="8.5" y="221.64"/><ellipse cx="23.5" cy="237.64" fill="#ADD1B2" rx="11" ry="11" style="stroke:#181818;stroke-width:1.0;"/><path d="M27.6094,243.64 L19.8906,243.64 L19.8906,231.2494 L27.6094,231.2494 L27.6094,233.4056 L22.3438,233.4056 L22.3438,236.0775 L27.1094,236.0775 L27.1094,238.2338 L22.3438,238.2338 L22.3438,241.4838 L27.6094,241.4838 L27.6094,243.64 Z " fill="#000000"/><text fill="#000000" font-family="sans-serif" font-size="14" lengthAdjust="spacing" textLength="117" x="37.5" y="242.4867">chat_participants</text><line style="stroke:#181818;stroke-width:0.5;" x1="9.5" x2="156.5" y1="253.64" y2="253.64"/><ellipse cx="19.5" cy="267.2884" fill="#000000" rx="3" ry="3" style="stroke:#000000;stroke-width:1.0;"/><text fill="#000000" font-family="sans-serif" font-size="14" lengthAdjust="spacing" textLength="119" x="28.5" y="270.6351">id_chat : int &#171;PK&#187;</text><ellipse cx="19.5" cy="283.5853" fill="#000000" rx="3" ry="3" style="stroke:#000000;stroke-width:1.0;"/><text fill="#000000" font-family="sans-serif" font-size="14" lengthAdjust="spacing" textLength="120" x="28.5" y="286.932">id_user : int &#171;PK&#187;</text><line style="stroke:#181818;stroke-width:0.5;" x1="9.5" x2="156.5" y1="294.2338" y2="294.2338"/></g><!--class message--><g id="elem_message"><rect codeLine="13" fill="#F1F1F1" height="129.4844" id="message" rx="2.5" ry="2.5" style="stroke:#181818;stroke-width:0.5;" width="117" x="192.5" y="197.19"/><ellipse cx="216.95" cy="213.19" fill="#ADD1B2" rx="11" ry="11" style="stroke:#181818;stroke-width:1.0;"/><path d="M221.0594,219.19 L213.3406,219.19 L213.3406,206.7994 L221.0594,206.7994 L221.0594,208.9556 L215.7938,208.9556 L215.7938,211.6275 L220.5594,211.6275 L220.5594,213.7838 L215.7938,213.7838 L215.7938,217.0338 L221.0594,217.0338 L221.0594,219.19 Z " fill="#000000"/><text fill="#000000" font-family="sans-serif" font-size="14" lengthAdjust="spacing" textLength="64" x="233.05" y="218.0367">message</text><line style="stroke:#181818;stroke-width:0.5;" x1="193.5" x2="308.5" y1="229.19" y2="229.19"/><ellipse cx="203.5" cy="242.8384" fill="#000000" rx="3" ry="3" style="stroke:#000000;stroke-width:1.0;"/><text fill="#000000" font-family="sans-serif" font-size="14" lengthAdjust="spacing" textLength="82" x="212.5" y="246.1851">id : int &#171;PK&#187;</text><line style="stroke:#181818;stroke-width:1.0;" x1="193.5" x2="308.5" y1="253.4869" y2="253.4869"/><text fill="#000000" font-family="sans-serif" font-size="14" lengthAdjust="spacing" textLength="79" x="198.5" y="270.482">sender : int</text><text fill="#000000" font-family="sans-serif" font-size="14" lengthAdjust="spacing" textLength="93" x="198.5" y="286.7789">content : text</text><text fill="#000000" font-family="sans-serif" font-size="14" lengthAdjust="spacing" textLength="105" x="198.5" y="303.0757">date : datetime</text><text fill="#000000" font-family="sans-serif" font-size="14" lengthAdjust="spacing" textLength="60" x="198.5" y="319.3726">chat : int</text></g><!--class message_read--><g id="elem_message_read"><rect codeLine="22" fill="#F1F1F1" height="80.5938" id="message_read" rx="2.5" ry="2.5" style="stroke:#181818;stroke-width:0.5;" width="179" x="225.5" y="403.68"/><ellipse cx="260.75" cy="419.68" fill="#ADD1B2" rx="11" ry="11" style="stroke:#181818;stroke-width:1.0;"/><path d="M264.8594,425.68 L257.1406,425.68 L257.1406,413.2894 L264.8594,413.2894 L264.8594,415.4456 L259.5938,415.4456 L259.5938,418.1175 L264.3594,418.1175 L264.3594,420.2737 L259.5938,420.2737 L259.5938,423.5237 L264.8594,423.5237 L264.8594,425.68 Z " fill="#000000"/><text fill="#000000" font-family="sans-serif" font-size="14" lengthAdjust="spacing" textLength="102" x="279.25" y="424.5267">message_read</text><line style="stroke:#181818;stroke-width:0.5;" x1="226.5" x2="403.5" y1="435.68" y2="435.68"/><ellipse cx="236.5" cy="449.3284" fill="#000000" rx="3" ry="3" style="stroke:#000000;stroke-width:1.0;"/><text fill="#000000" font-family="sans-serif" font-size="14" lengthAdjust="spacing" textLength="153" x="245.5" y="452.6751">id_message : int &#171;PK&#187;</text><ellipse cx="236.5" cy="465.6253" fill="#000000" rx="3" ry="3" style="stroke:#000000;stroke-width:1.0;"/><text fill="#000000" font-family="sans-serif" font-size="14" lengthAdjust="spacing" textLength="120" x="245.5" y="468.972">id_user : int &#171;PK&#187;</text><line style="stroke:#181818;stroke-width:0.5;" x1="226.5" x2="403.5" y1="476.2737" y2="476.2737"/></g><!--class users--><g id="elem_users"><rect codeLine="27" fill="#F1F1F1" height="113.1875" id="users" rx="2.5" ry="2.5" style="stroke:#181818;stroke-width:0.5;" width="145" x="202.5" y="7"/><ellipse cx="251.25" cy="23" fill="#ADD1B2" rx="11" ry="11" style="stroke:#181818;stroke-width:1.0;"/><path d="M255.3594,29 L247.6406,29 L247.6406,16.6094 L255.3594,16.6094 L255.3594,18.7656 L250.0938,18.7656 L250.0938,21.4375 L254.8594,21.4375 L254.8594,23.5938 L250.0938,23.5938 L250.0938,26.8438 L255.3594,26.8438 L255.3594,29 Z " fill="#000000"/><text fill="#000000" font-family="sans-serif" font-size="14" lengthAdjust="spacing" textLength="39" x="271.75" y="27.8467">users</text><line style="stroke:#181818;stroke-width:0.5;" x1="203.5" x2="346.5" y1="39" y2="39"/><ellipse cx="213.5" cy="52.6484" fill="#000000" rx="3" ry="3" style="stroke:#000000;stroke-width:1.0;"/><text fill="#000000" font-family="sans-serif" font-size="14" lengthAdjust="spacing" textLength="82" x="222.5" y="55.9951">id : int &#171;PK&#187;</text><line style="stroke:#181818;stroke-width:1.0;" x1="203.5" x2="346.5" y1="63.2969" y2="63.2969"/><text fill="#000000" font-family="sans-serif" font-size="14" lengthAdjust="spacing" textLength="133" x="208.5" y="80.292">username : varchar</text><text fill="#000000" font-family="sans-serif" font-size="14" lengthAdjust="spacing" textLength="99" x="208.5" y="96.5889">email : varchar</text><text fill="#000000" font-family="sans-serif" font-size="14" lengthAdjust="spacing" textLength="130" x="208.5" y="112.8857">password : varchar</text></g><!--link chat to chat_participants--><g id="link_chat_chat_participants"><path codeLine="35" d="M81.0165,128.2635 C80.3765,138.2135 80.34,140.52 80,150.19 C79.18,173.74 79.0629,182.1264 79.9629,203.2264 " fill="none" id="chat-chat_participants" style="stroke:#181818;stroke-width:1.0;"/><line style="stroke:#181818;stroke-width:1.0;" x1="77.2815" x2="85.265" y1="124.015" y2="124.5285"/><line style="stroke:#181818;stroke-width:1.0;" x1="77.0889" x2="85.0724" y1="127.0088" y2="127.5223"/><line style="stroke:#181818;stroke-width:1.0;" x1="81.0165" x2="81.53" y1="128.2635" y2="120.28"/><line style="stroke:#181818;stroke-width:1.0;" x1="80.3891" x2="86.7245" y1="213.2173" y2="220.9543"/><line style="stroke:#181818;stroke-width:1.0;" x1="80.3891" x2="74.7355" y1="213.2173" y2="221.4657"/><line style="stroke:#181818;stroke-width:1.0;" x1="80.3891" x2="80.73" y1="213.2173" y2="221.21"/><ellipse cx="80.1334" cy="207.2227" fill="none" rx="4" ry="4" style="stroke:#181818;stroke-width:1.0;"/><text fill="#000000" font-family="sans-serif" font-size="13" lengthAdjust="spacing" textLength="22" x="81" y="163.2569">1:N</text></g><!--link users to chat_participants--><g id="link_users_chat_participants"><path codeLine="36" d="M214.6466,126.3196 C183.1666,158.5096 162.5648,179.5706 134.2648,208.5106 " fill="none" id="users-chat_participants" style="stroke:#181818;stroke-width:1.0;"/><line style="stroke:#181818;stroke-width:1.0;" x1="214.5835" x2="220.3031" y1="120.6631" y2="126.2565"/><line style="stroke:#181818;stroke-width:1.0;" x1="212.486" x2="218.2055" y1="122.8079" y2="128.4013"/><line style="stroke:#181818;stroke-width:1.0;" x1="214.6466" x2="220.24" y1="126.3196" y2="120.6"/><line style="stroke:#181818;stroke-width:1.0;" x1="127.2733" x2="125.9698" y1="215.6603" y2="225.5749"/><line style="stroke:#181818;stroke-width:1.0;" x1="127.2733" x2="117.3902" y1="215.6603" y2="217.1851"/><line style="stroke:#181818;stroke-width:1.0;" x1="127.2733" x2="121.68" y1="215.6603" y2="221.38"/><ellipse cx="131.4682" cy="211.3704" fill="none" rx="4" ry="4" style="stroke:#181818;stroke-width:1.0;"/><text fill="#000000" font-family="sans-serif" font-size="13" lengthAdjust="spacing" textLength="22" x="191" y="163.2569">1:N</text></g><!--link chat to message--><g id="link_chat_message"><path codeLine="37" d="M117.0765,127.5613 C125.9065,143.3413 132.51,153.07 144,167.19 C148.4,172.6 156.1492,179.7325 178.6392,199.1625 " fill="none" id="chat-message" style="stroke:#181818;stroke-width:1.0;"/><line style="stroke:#181818;stroke-width:1.0;" x1="111.6326" x2="118.6139" y1="126.0239" y2="122.1174"/><line style="stroke:#181818;stroke-width:1.0;" x1="113.0976" x2="120.0789" y1="128.6419" y2="124.7354"/><line style="stroke:#181818;stroke-width:1.0;" x1="117.0765" x2="113.17" y1="127.5613" y2="120.58"/><line style="stroke:#181818;stroke-width:1.0;" x1="186.2063" x2="196.1825" y1="205.7" y2="206.3897"/><line style="stroke:#181818;stroke-width:1.0;" x1="186.2063" x2="188.3375" y1="205.7" y2="215.4703"/><line style="stroke:#181818;stroke-width:1.0;" x1="186.2063" x2="192.26" y1="205.7" y2="210.93"/><ellipse cx="181.6661" cy="201.7775" fill="none" rx="4" ry="4" style="stroke:#181818;stroke-width:1.0;"/><text fill="#000000" font-family="sans-serif" font-size="13" lengthAdjust="spacing" textLength="22" x="145" y="163.2569">1:N</text></g><!--link users to message--><g id="link_users_message"><path codeLine="38" d="M267.1824,128.5413 C264.2824,152.3413 264.0244,154.413 261.0144,179.033 " fill="none" id="users-message" style="stroke:#181818;stroke-width:1.0;"/><line style="stroke:#181818;stroke-width:1.0;" x1="263.6956" x2="271.6368" y1="124.0868" y2="125.0544"/><line style="stroke:#181818;stroke-width:1.0;" x1="263.3327" x2="271.274" y1="127.0648" y2="128.0324"/><line style="stroke:#181818;stroke-width:1.0;" x1="267.1824" x2="268.15" y1="128.5413" y2="120.6"/><line style="stroke:#181818;stroke-width:1.0;" x1="259.8008" x2="264.7857" y1="188.9591" y2="197.6281"/><line style="stroke:#181818;stroke-width:1.0;" x1="259.8008" x2="252.8743" y1="188.9591" y2="196.1719"/><line style="stroke:#181818;stroke-width:1.0;" x1="259.8008" x2="258.83" y1="188.9591" y2="196.9"/><ellipse cx="260.529" cy="183.0035" fill="none" rx="4" ry="4" style="stroke:#181818;stroke-width:1.0;"/><text fill="#000000" font-family="sans-serif" font-size="13" lengthAdjust="spacing" textLength="22" x="265" y="163.2569">1:N</text></g><!--link message to message_read--><g id="link_message_message_read"><path codeLine="39" d="M276.5104,334.7076 C285.5604,360.1576 286.9595,364.1102 294.8995,386.4402 " fill="none" id="message-message_read" style="stroke:#181818;stroke-width:1.0;"/><line style="stroke:#181818;stroke-width:1.0;" x1="271.4014" x2="278.939" y1="332.279" y2="329.5986"/><line style="stroke:#181818;stroke-width:1.0;" x1="272.4065" x2="279.9441" y1="335.1056" y2="332.4252"/><line style="stroke:#181818;stroke-width:1.0;" x1="276.5104" x2="273.83" y1="334.7076" y2="327.17"/><line style="stroke:#181818;stroke-width:1.0;" x1="298.2498" x2="306.5833" y1="395.8623" y2="401.3898"/><line style="stroke:#181818;stroke-width:1.0;" x1="298.2498" x2="295.2767" y1="395.8623" y2="405.4102"/><line style="stroke:#181818;stroke-width:1.0;" x1="298.2498" x2="300.93" y1="395.8623" y2="403.4"/><ellipse cx="296.2396" cy="390.2091" fill="none" rx="4" ry="4" style="stroke:#181818;stroke-width:1.0;"/><text fill="#000000" font-family="sans-serif" font-size="13" lengthAdjust="spacing" textLength="22" x="289" y="369.7469">1:N</text></g><!--link users to message_read--><g id="link_users_message_read"><path codeLine="40" d="M305.4818,128.0015 C315.3218,151.1315 322.08,171.19 327,197.19 C340.57,268.97 333.5944,336.7608 325.5144,385.6608 " fill="none" id="users-message_read" style="stroke:#181818;stroke-width:1.0;"/><line style="stroke:#181818;stroke-width:1.0;" x1="300.2351" x2="307.5966" y1="125.8866" y2="122.7549"/><line style="stroke:#181818;stroke-width:1.0;" x1="301.4095" x2="308.771" y1="128.6472" y2="125.5155"/><line style="stroke:#181818;stroke-width:1.0;" x1="305.4818" x2="302.35" y1="128.0015" y2="120.64"/><line style="stroke:#181818;stroke-width:1.0;" x1="323.8842" x2="328.4997" y1="395.527" y2="404.3981"/><line style="stroke:#181818;stroke-width:1.0;" x1="323.8842" x2="316.6603" y1="395.527" y2="402.4419"/><line style="stroke:#181818;stroke-width:1.0;" x1="323.8842" x2="322.58" y1="395.527" y2="403.42"/><ellipse cx="324.8623" cy="389.6073" fill="none" rx="4" ry="4" style="stroke:#181818;stroke-width:1.0;"/><text fill="#000000" font-family="sans-serif" font-size="13" lengthAdjust="spacing" textLength="22" x="334" y="266.4969">1:N</text></g><!--SRC=[bP1D2i8m48NtESNGfT25soAzW23Ue0pDK0CsBSdK7rhlxgHIQrGgRXBotilBbo7BXgzG7f2XLm0hC1eoC9PXizblyroqD0LPAzTqRJ46Cs1Zhv8HsM9D8fpGYUNKJIcQAuiM7PlIj6ZPF_kdakYHqUWykTYO-sho7YjQe9J5azLJXHpBnh9S3y1q2O963hHXOrDJY3nPFjyg7A6UiIU2Vyc3vvUvG-HjaW1Kepb6IelUdnkduu6FNnY6D6twBrFF85bdkqGzA7x6Nilc3t-fU3UdSsm_HhXK42Nk]--></g></svg>