<svg version="1.1" xmlns="http://www.w3.org/2000/svg" viewBox="0 0 1746.795393497145 984.63568005975" width="1746.795393497145" height="984.63568005975">
  <!-- svg-source:excalidraw -->
  
  <defs>
    <style class="style-fonts">
      @font-face {
        font-family: "Virgil";
        src: url("https://excalidraw.com/Virgil.woff2");
      }
      @font-face {
        font-family: "Cascadia";
        src: url("https://excalidraw.com/Cascadia.woff2");
      }
      @font-face {
        font-family: "Assistant";
        src: url("https://excalidraw.com/Assistant-Regular.woff2");
      }
    </style>
    
  </defs>
  <g stroke-linecap="round" transform="translate(10 104.5614378042028) rotate(0 122.89313796881652 85.20963378110946)"><path d="M32 0 C72.53 0.68, 117.99 0.31, 213.79 0 M32 0 C95.95 0.96, 158.25 0.6, 213.79 0 M213.79 0 C237.1 0.87, 246.7 10.88, 245.79 32 M213.79 0 C234.09 -1.54, 244.07 9.13, 245.79 32 M245.79 32 C246.57 61.75, 246.83 91.88, 245.79 138.42 M245.79 32 C245.13 58.45, 245.01 84.07, 245.79 138.42 M245.79 138.42 C246.7 160.45, 236.96 168.44, 213.79 170.42 M245.79 138.42 C245.2 158.69, 236.74 170.28, 213.79 170.42 M213.79 170.42 C141 170.77, 67.65 171.62, 32 170.42 M213.79 170.42 C158.07 172.31, 102.54 171.62, 32 170.42 M32 170.42 C9.45 169.44, 1.68 161.68, 0 138.42 M32 170.42 C11.68 169.03, 1.85 159.87, 0 138.42 M0 138.42 C-0.56 118.09, 1.97 95.6, 0 32 M0 138.42 C1.1 98.94, 0.76 60.22, 0 32 M0 32 C-1.59 12.52, 10.72 1.04, 32 0 M0 32 C-1.87 8.76, 8.79 1.87, 32 0" stroke="#1e1e1e" stroke-width="2" fill="none"></path></g><g stroke-linecap="round" transform="translate(29.721754153381426 311.60616723478233) rotate(0 18.312730934180138 17.58022169681317)"><path d="M17.14 -0.08 C20.98 -0.59, 26.29 1.05, 29.52 3.26 C32.75 5.48, 35.7 9.53, 36.54 13.21 C37.37 16.88, 36.26 21.87, 34.51 25.31 C32.76 28.76, 29.65 32.4, 26.02 33.89 C22.39 35.38, 16.57 35.29, 12.72 34.26 C8.88 33.22, 5.05 30.86, 2.94 27.69 C0.83 24.51, -0.44 18.95, 0.05 15.18 C0.54 11.42, 2.93 7.6, 5.89 5.08 C8.84 2.57, 15.64 0.92, 17.77 0.08 C19.91 -0.77, 18.71 -0.33, 18.7 0.01 M20.11 -0.53 C23.7 -0.3, 28.41 2.36, 31.28 5.33 C34.14 8.29, 37.14 13.46, 37.29 17.25 C37.44 21.05, 34.58 25.27, 32.18 28.08 C29.78 30.88, 26.72 33.23, 22.9 34.07 C19.08 34.91, 12.74 34.78, 9.26 33.11 C5.79 31.43, 3.43 27.47, 2.05 24.02 C0.68 20.56, -0.13 16.05, 1.04 12.38 C2.21 8.71, 5.88 4.08, 9.07 2.01 C12.26 -0.05, 18.35 0.36, 20.18 -0.01 C22.01 -0.38, 19.91 -0.62, 20.05 -0.21" stroke="#1e1e1e" stroke-width="2" fill="none"></path></g><g stroke-linecap="round" transform="translate(31.91928186548307 381.9270540220323) rotate(0 18.312730934180138 17.58022169681317)"><path d="M16.12 -0.1 C19.75 -0.87, 24.65 0.38, 28.01 2.38 C31.36 4.38, 35 8.26, 36.25 11.9 C37.51 15.55, 37.12 20.63, 35.56 24.25 C33.99 27.87, 30.39 31.84, 26.86 33.61 C23.33 35.37, 18.12 35.68, 14.36 34.84 C10.6 34, 6.64 31.51, 4.29 28.56 C1.93 25.61, 0.2 20.99, 0.26 17.15 C0.31 13.3, 1.96 8.33, 4.61 5.47 C7.26 2.61, 14.08 0.82, 16.16 -0.03 C18.25 -0.89, 17.07 0.07, 17.12 0.33 M18.38 -0.72 C22.04 -0.94, 27.26 1.89, 30.21 4.3 C33.16 6.72, 35.45 10.09, 36.07 13.75 C36.69 17.4, 35.69 22.8, 33.93 26.25 C32.18 29.7, 29.25 33.2, 25.55 34.42 C21.85 35.65, 15.45 35, 11.74 33.59 C8.03 32.18, 5.18 29.08, 3.31 25.94 C1.43 22.81, -0.1 18.48, 0.48 14.77 C1.05 11.05, 3.82 6.1, 6.75 3.67 C9.68 1.24, 16.23 0.74, 18.06 0.2 C19.89 -0.35, 17.63 0.04, 17.74 0.38" stroke="#1e1e1e" stroke-width="2" fill="none"></path></g><g stroke-linecap="round" transform="translate(30.45426339074868 447.8528853850821) rotate(0 18.312730934180138 17.58022169681317)"><path d="M18.65 -0.32 C22.47 -0.46, 27.75 1.64, 30.71 4.11 C33.67 6.57, 35.9 10.65, 36.43 14.48 C36.96 18.3, 35.94 23.78, 33.89 27.07 C31.84 30.36, 27.92 33.14, 24.15 34.21 C20.38 35.28, 14.9 34.78, 11.27 33.49 C7.65 32.19, 4.18 29.67, 2.41 26.47 C0.63 23.27, -0.15 18.03, 0.62 14.29 C1.39 10.54, 3.87 6.44, 7.02 4 C10.18 1.55, 17.38 0.13, 19.56 -0.39 C21.74 -0.92, 20.2 0.48, 20.11 0.87 M16.65 -0.1 C20.31 -0.6, 25.52 1.27, 28.81 3.28 C32.09 5.29, 35.2 8.45, 36.36 11.97 C37.52 15.49, 37.38 20.97, 35.77 24.39 C34.16 27.81, 30.15 30.83, 26.68 32.48 C23.21 34.14, 18.69 34.94, 14.94 34.3 C11.18 33.66, 6.53 31.63, 4.15 28.65 C1.76 25.67, 0.57 20.3, 0.63 16.41 C0.69 12.51, 1.85 7.89, 4.52 5.29 C7.18 2.7, 14.67 1.66, 16.6 0.86 C18.53 0.05, 16.11 0.37, 16.1 0.47" stroke="#1e1e1e" stroke-width="2" fill="none"></path></g><g stroke-linecap="round" transform="translate(28.989244916014286 515.2437352228662) rotate(0 18.312730934180138 17.58022169681317)"><path d="M19.37 -0.05 C22.97 -0.04, 27.86 1.83, 30.7 4.48 C33.55 7.13, 35.99 12.02, 36.44 15.83 C36.9 19.65, 35.64 24.24, 33.42 27.37 C31.21 30.51, 26.93 33.53, 23.16 34.63 C19.4 35.73, 14.33 35.6, 10.81 33.97 C7.29 32.33, 3.69 28.21, 2.04 24.81 C0.39 21.41, -0.09 17.13, 0.91 13.56 C1.91 10, 4.79 5.7, 8.02 3.45 C11.26 1.19, 18.19 0.6, 20.32 0.04 C22.45 -0.52, 20.92 -0.18, 20.79 0.1 M17.73 -0.14 C21.44 -0.6, 26.79 0.74, 29.9 3.15 C33 5.57, 35.52 10.68, 36.36 14.36 C37.2 18.03, 36.85 21.99, 34.94 25.21 C33.03 28.43, 28.7 32.21, 24.91 33.69 C21.11 35.16, 15.83 35.04, 12.17 34.06 C8.51 33.08, 4.89 30.87, 2.92 27.8 C0.96 24.73, -0.1 19.42, 0.38 15.66 C0.86 11.9, 2.98 7.79, 5.82 5.22 C8.65 2.65, 15.58 1.15, 17.4 0.24 C19.22 -0.67, 16.65 -0.56, 16.74 -0.24" stroke="#1e1e1e" stroke-width="2" fill="none"></path></g><g transform="translate(103.43769636483637 309.7362041842507) rotate(0 90.23437499999994 16.800000000000182)"><text x="0" y="27.0375" font-family="Cascadia, Segoe UI Emoji" font-size="28px" fill="#1e1e1e" text-anchor="start" style="white-space: pre;" direction="ltr" dominant-baseline="alphabetic">id : Number</text></g><g transform="translate(104.43769636483637 384.85709097150266) rotate(0 106.64062499999994 16.800000000000182)"><text x="0" y="27.0375" font-family="Cascadia, Segoe UI Emoji" font-size="28px" fill="#1e1e1e" text-anchor="start" style="white-space: pre;" direction="ltr" dominant-baseline="alphabetic">name : String</text></g><g transform="translate(104.43769636483626 453.71295928401923) rotate(0 155.859375 16.800000000000182)"><text x="0" y="27.0375" font-family="Cascadia, Segoe UI Emoji" font-size="28px" fill="#1e1e1e" text-anchor="start" style="white-space: pre;" direction="ltr" dominant-baseline="alphabetic">groupChat : Boolean</text></g><g transform="translate(102.97267789010186 521.1038091218024) rotate(0 180.46875000000006 16.800000000000182)"><text x="0" y="27.0375" font-family="Cascadia, Segoe UI Emoji" font-size="28px" fill="#1e1e1e" text-anchor="start" style="white-space: pre;" direction="ltr" dominant-baseline="alphabetic">lastMessageDate : Date</text></g><g stroke-linecap="round" transform="translate(32.014058876499234 589.2748806563986) rotate(0 18.312730934180138 17.58022169681317)"><path d="M16.83 -0.26 C20.54 -0.72, 26.16 1.37, 29.45 3.69 C32.73 6.01, 35.63 10.13, 36.55 13.66 C37.47 17.19, 36.69 21.58, 34.95 24.87 C33.21 28.16, 29.67 31.81, 26.11 33.41 C22.54 35.01, 17.4 35.49, 13.56 34.46 C9.71 33.44, 5.22 30.36, 3.04 27.27 C0.85 24.19, -0.01 19.65, 0.43 15.94 C0.87 12.22, 2.83 7.58, 5.66 4.99 C8.48 2.4, 15.31 1.14, 17.38 0.41 C19.45 -0.32, 17.95 0.37, 18.07 0.62 M19.62 0.04 C23.41 0.01, 28.76 1.71, 31.7 4.29 C34.64 6.86, 36.89 11.58, 37.27 15.51 C37.64 19.44, 36.33 24.78, 33.96 27.88 C31.59 30.97, 26.97 33.17, 23.04 34.08 C19.1 34.98, 13.85 34.73, 10.34 33.31 C6.83 31.9, 3.65 28.82, 1.98 25.58 C0.3 22.35, -0.6 17.72, 0.28 13.9 C1.15 10.08, 3.96 4.89, 7.22 2.66 C10.48 0.44, 17.75 0.93, 19.84 0.54 C21.93 0.14, 19.87 0.11, 19.77 0.31" stroke="#1e1e1e" stroke-width="2" fill="none"></path></g><g stroke-linecap="round" transform="translate(30.549040401764728 656.6657304941828) rotate(0 18.312730934180138 17.58022169681317)"><path d="M20.54 0.47 C24.37 0.72, 29.19 3.13, 31.88 5.7 C34.57 8.27, 36.44 12.24, 36.7 15.89 C36.96 19.54, 35.74 24.5, 33.46 27.61 C31.19 30.72, 26.94 33.62, 23.07 34.56 C19.21 35.5, 13.78 34.82, 10.26 33.22 C6.75 31.62, 3.56 28.35, 1.98 24.95 C0.41 21.56, -0.14 16.43, 0.81 12.85 C1.76 9.28, 4.36 5.55, 7.67 3.48 C10.98 1.41, 18.23 0.9, 20.65 0.45 C23.06 0, 22.14 0.52, 22.17 0.79 M17.41 -0.69 C21.24 -1.26, 26.45 0.52, 29.65 2.88 C32.84 5.24, 35.74 9.87, 36.58 13.5 C37.42 17.13, 36.51 21.38, 34.67 24.68 C32.83 27.97, 29.05 31.58, 25.54 33.29 C22.04 35, 17.4 35.79, 13.64 34.95 C9.87 34.11, 5.27 31.54, 2.94 28.27 C0.61 25, -0.8 19.1, -0.36 15.32 C0.08 11.53, 2.68 8.11, 5.56 5.55 C8.44 2.99, 15.08 0.83, 16.9 -0.04 C18.73 -0.9, 16.5 -0.04, 16.51 0.35" stroke="#1e1e1e" stroke-width="2" fill="none"></path></g><g transform="translate(105.9974918505867 595.1349545553358) rotate(0 188.67187499999994 16.800000000000182)"><text x="0" y="27.0375" font-family="Cascadia, Segoe UI Emoji" font-size="28px" fill="#1e1e1e" text-anchor="start" style="white-space: pre;" direction="ltr" dominant-baseline="alphabetic">unreadMessages : Number</text></g><g transform="translate(104.53247337585242 662.5258043931199) rotate(0 164.06249999999994 16.800000000000182)"><text x="0" y="27.0375" font-family="Cascadia, Segoe UI Emoji" font-size="28px" fill="#1e1e1e" text-anchor="start" style="white-space: pre;" direction="ltr" dominant-baseline="alphabetic">participants : Users</text></g><g stroke-linecap="round"><g transform="translate(259.72965468668394 200.2647631549671) rotate(0 312.78144435579657 -0.7325092373671396)"><path d="M0.46 -0.8 C104.41 -1.16, 520.59 -2.3, 624.65 -2.55 M-0.76 1.39 C103.48 1.18, 522.21 -1.12, 626.88 -1.58" stroke="#1e1e1e" stroke-width="2" fill="none"></path></g></g><mask></mask><g stroke-linecap="round" transform="translate(895.7160866302918 112.12509242438864) rotate(0 122.89313796881652 85.20963378110946)"><path d="M32 0 C75.54 0.3, 117.44 -1.09, 213.79 0 M32 0 C90.05 -1.15, 149.01 0.12, 213.79 0 M213.79 0 C237.02 1.36, 246.7 9.51, 245.79 32 M213.79 0 C235.29 0.16, 246.52 12.82, 245.79 32 M245.79 32 C245.16 62.71, 246.44 89.45, 245.79 138.42 M245.79 32 C244.11 72.17, 245.07 110.98, 245.79 138.42 M245.79 138.42 C243.88 159.62, 236.7 170.86, 213.79 170.42 M245.79 138.42 C247.74 157.84, 235.22 172.62, 213.79 170.42 M213.79 170.42 C165.93 168.47, 119.39 168.24, 32 170.42 M213.79 170.42 C150.86 169.55, 88.83 168.71, 32 170.42 M32 170.42 C12 169.52, 0.89 159.99, 0 138.42 M32 170.42 C9.26 172.4, 0.2 159.42, 0 138.42 M0 138.42 C-1.76 97.19, 1.05 52.28, 0 32 M0 138.42 C-0.11 111.7, 1.35 83.97, 0 32 M0 32 C-1.47 10.86, 10.11 1.33, 32 0 M0 32 C-0.03 12.96, 12.73 0.27, 32 0" stroke="#1e1e1e" stroke-width="2" fill="none"></path></g><g transform="translate(90.0855473847904 165.47959688235733) rotate(0 42.1875 21.59999999999991)"><text x="0" y="34.762499999999996" font-family="Cascadia, Segoe UI Emoji" font-size="36px" fill="#1e1e1e" text-anchor="start" style="white-space: pre;" direction="ltr" dominant-baseline="alphabetic">Chat</text></g><g transform="translate(973.4916876496395 174.2697077307639) rotate(0 42.1875 21.59999999999991)"><text x="0" y="34.762499999999996" font-family="Cascadia, Segoe UI Emoji" font-size="36px" fill="#1e1e1e" text-anchor="start" style="white-space: pre;" direction="ltr" dominant-baseline="alphabetic">User</text></g><g stroke-linecap="round" transform="translate(1202.3709082948242 11.869963050532533) rotate(0 18.31273093418008 17.58022169681317)"><path d="M14.55 0.45 C18.26 -0.6, 23.67 -0.08, 27.19 1.69 C30.72 3.46, 34.31 7.57, 35.7 11.05 C37.1 14.53, 36.77 18.98, 35.57 22.57 C34.37 26.16, 31.73 30.44, 28.49 32.59 C25.25 34.74, 20.12 36.01, 16.12 35.46 C12.13 34.91, 7.19 32.09, 4.51 29.3 C1.83 26.51, 0.11 22.39, 0.03 18.71 C-0.04 15.03, 1.57 10.35, 4.08 7.21 C6.58 4.07, 13.16 0.98, 15.07 -0.13 C16.99 -1.25, 15.61 0.22, 15.58 0.51 M18.76 0.55 C22.45 0.23, 27.33 1.01, 30.34 3.29 C33.36 5.57, 36.32 10.5, 36.86 14.22 C37.41 17.95, 35.56 22.28, 33.62 25.65 C31.69 29.03, 28.74 33.13, 25.24 34.47 C21.75 35.81, 16.32 35.05, 12.65 33.7 C8.98 32.35, 5.33 29.58, 3.21 26.36 C1.09 23.15, -0.71 18.02, -0.06 14.41 C0.6 10.81, 3.99 7.15, 7.13 4.74 C10.26 2.33, 16.81 0.73, 18.74 -0.03 C20.68 -0.78, 18.87 0.01, 18.74 0.21" stroke="#1e1e1e" stroke-width="2" fill="none"></path></g><g stroke-linecap="round" transform="translate(1204.568436006926 82.19084983778157) rotate(0 18.31273093418008 17.58022169681317)"><path d="M18.78 -0.27 C22.54 -0.45, 27.68 1.93, 30.57 4.35 C33.45 6.78, 35.46 10.57, 36.11 14.28 C36.76 17.98, 36.36 23.2, 34.46 26.57 C32.57 29.95, 28.52 33.32, 24.73 34.54 C20.94 35.76, 15.43 35.21, 11.72 33.9 C8.01 32.59, 4.33 29.86, 2.48 26.68 C0.63 23.5, -0.11 18.67, 0.61 14.83 C1.33 10.99, 3.76 6.14, 6.82 3.66 C9.88 1.18, 16.94 0.55, 18.96 -0.07 C20.98 -0.7, 18.98 -0.45, 18.93 -0.08 M16.88 -0.64 C20.55 -1.33, 26.1 0.76, 29.17 2.91 C32.24 5.05, 34.25 8.52, 35.31 12.24 C36.36 15.96, 36.95 21.78, 35.52 25.23 C34.08 28.69, 30.21 31.42, 26.7 32.96 C23.2 34.5, 18.4 35.37, 14.47 34.47 C10.54 33.57, 5.42 30.52, 3.14 27.57 C0.86 24.63, 0.32 20.51, 0.76 16.79 C1.21 13.08, 3.08 8.09, 5.8 5.28 C8.52 2.47, 15.32 0.85, 17.07 -0.05 C18.82 -0.95, 16.4 -0.45, 16.29 -0.12" stroke="#1e1e1e" stroke-width="2" fill="none"></path></g><g stroke-linecap="round" transform="translate(1203.1034175321918 148.11668120083232) rotate(0 18.31273093418008 17.58022169681317)"><path d="M18.94 0.25 C22.55 0.06, 27 1.52, 29.95 3.96 C32.91 6.4, 35.94 11.05, 36.65 14.87 C37.37 18.7, 36.33 23.75, 34.24 26.92 C32.15 30.1, 27.82 32.7, 24.11 33.94 C20.39 35.18, 15.5 35.59, 11.94 34.35 C8.38 33.12, 4.61 29.95, 2.72 26.54 C0.83 23.14, -0.1 17.7, 0.59 13.94 C1.29 10.17, 3.79 6.35, 6.88 3.96 C9.98 1.56, 16.95 0.1, 19.18 -0.42 C21.4 -0.94, 20.27 0.4, 20.25 0.84 M22.21 0.15 C25.75 0.61, 29.34 2.83, 31.82 5.83 C34.31 8.84, 36.99 14.39, 37.13 18.18 C37.27 21.96, 35.19 25.79, 32.67 28.56 C30.14 31.32, 25.98 34.13, 21.99 34.78 C17.99 35.42, 12.07 34.25, 8.7 32.45 C5.32 30.64, 2.91 27.47, 1.76 23.95 C0.6 20.44, 0.41 15.01, 1.76 11.38 C3.12 7.74, 6.62 4.07, 9.9 2.13 C13.18 0.19, 19.52 -0.03, 21.44 -0.26 C23.35 -0.5, 21.43 0.31, 21.37 0.73" stroke="#1e1e1e" stroke-width="2" fill="none"></path></g><g stroke-linecap="round" transform="translate(1201.6383990574575 215.50753103861643) rotate(0 18.31273093418008 17.58022169681317)"><path d="M15.66 -0.08 C19.29 -0.78, 25.04 0.83, 28.41 2.96 C31.78 5.09, 34.82 9.19, 35.9 12.71 C36.98 16.23, 36.41 20.62, 34.9 24.08 C33.38 27.53, 30.17 31.63, 26.81 33.46 C23.45 35.28, 18.5 35.97, 14.71 35.03 C10.93 34.1, 6.51 30.89, 4.1 27.84 C1.69 24.8, 0.17 20.53, 0.26 16.77 C0.34 13.01, 1.8 8, 4.59 5.27 C7.38 2.55, 14.77 1.18, 16.99 0.43 C19.21 -0.32, 17.84 0.49, 17.93 0.76 M13.31 -0.07 C16.87 -1.05, 23.2 0.55, 26.9 2.23 C30.6 3.91, 33.9 6.68, 35.51 10.03 C37.12 13.38, 37.79 18.69, 36.57 22.33 C35.35 25.98, 31.45 29.71, 28.2 31.92 C24.94 34.12, 20.8 35.95, 17.05 35.58 C13.3 35.22, 8.43 32.55, 5.69 29.72 C2.96 26.89, 1.03 22.46, 0.63 18.61 C0.23 14.76, 1.12 9.64, 3.3 6.64 C5.48 3.64, 11.96 1.52, 13.7 0.59 C15.44 -0.34, 13.72 0.8, 13.74 1.07" stroke="#1e1e1e" stroke-width="2" fill="none"></path></g><g transform="translate(1276.0868505062792 10) rotate(0 90.234375 16.800000000000182)"><text x="0" y="27.0375" font-family="Cascadia, Segoe UI Emoji" font-size="28px" fill="#1e1e1e" text-anchor="start" style="white-space: pre;" direction="ltr" dominant-baseline="alphabetic">id : Number</text></g><g transform="translate(1277.0868505062792 85.12088678725195) rotate(0 139.453125 16.800000000000182)"><text x="0" y="27.0375" font-family="Cascadia, Segoe UI Emoji" font-size="28px" fill="#1e1e1e" text-anchor="start" style="white-space: pre;" direction="ltr" dominant-baseline="alphabetic">username : String</text></g><g transform="translate(1277.0868505062792 153.97675509976943) rotate(0 114.84375 16.800000000000182)"><text x="0" y="27.0375" font-family="Cascadia, Segoe UI Emoji" font-size="28px" fill="#1e1e1e" text-anchor="start" style="white-space: pre;" direction="ltr" dominant-baseline="alphabetic">email : String</text></g><g transform="translate(1275.621832031545 221.36760493755355) rotate(0 139.453125 16.800000000000182)"><text x="0" y="27.0375" font-family="Cascadia, Segoe UI Emoji" font-size="28px" fill="#1e1e1e" text-anchor="start" style="white-space: pre;" direction="ltr" dominant-baseline="alphabetic">password : String</text></g><g stroke-linecap="round" transform="translate(1204.663213017942 289.5386764721479) rotate(0 18.31273093418008 17.58022169681317)"><path d="M16.77 0.38 C20.5 -0.34, 25.64 0.51, 28.87 2.56 C32.11 4.61, 35.17 9.06, 36.16 12.69 C37.16 16.32, 36.47 20.8, 34.83 24.31 C33.18 27.83, 29.82 31.99, 26.29 33.78 C22.76 35.57, 17.39 35.98, 13.65 35.04 C9.91 34.1, 6.19 31.21, 3.85 28.15 C1.5 25.09, -0.64 20.55, -0.44 16.68 C-0.23 12.81, 2.24 7.64, 5.07 4.92 C7.9 2.21, 14.44 1.1, 16.55 0.39 C18.67 -0.32, 17.71 0.36, 17.75 0.67 M18.13 0.54 C21.99 0.19, 26.87 1.38, 29.98 3.55 C33.08 5.71, 36.02 9.96, 36.76 13.54 C37.49 17.13, 36.3 21.67, 34.37 25.05 C32.44 28.44, 28.8 32.28, 25.18 33.87 C21.55 35.46, 16.41 35.73, 12.62 34.59 C8.82 33.46, 4.38 30.17, 2.4 27.06 C0.43 23.95, 0.09 19.66, 0.75 15.93 C1.41 12.21, 3.68 7.35, 6.38 4.72 C9.07 2.09, 15.16 0.8, 16.89 0.15 C18.63 -0.51, 16.69 0.64, 16.8 0.79" stroke="#1e1e1e" stroke-width="2" fill="none"></path></g><g stroke-linecap="round" transform="translate(1203.1981945432078 356.92952630993386) rotate(0 18.31273093418008 17.58022169681317)"><path d="M21.31 -0.27 C25.02 -0.03, 29.75 3.03, 32.27 5.85 C34.78 8.68, 36.36 12.83, 36.42 16.67 C36.48 20.51, 35.07 25.82, 32.63 28.91 C30.19 32, 25.55 34.49, 21.77 35.22 C17.98 35.95, 13.44 35.1, 9.94 33.29 C6.45 31.49, 2.31 28.01, 0.79 24.39 C-0.72 20.77, -0.41 15.16, 0.85 11.58 C2.11 8.01, 4.84 4.76, 8.36 2.93 C11.87 1.1, 19.67 0.87, 21.92 0.59 C24.17 0.3, 21.99 1, 21.87 1.2 M17.26 0.04 C20.93 -0.61, 26.27 0.95, 29.36 3.01 C32.44 5.07, 34.86 8.74, 35.75 12.42 C36.64 16.09, 36.35 21.5, 34.7 25.05 C33.04 28.59, 29.42 32.13, 25.82 33.71 C22.22 35.29, 16.76 35.44, 13.11 34.53 C9.47 33.63, 6.04 31.33, 3.95 28.26 C1.86 25.2, 0.43 19.96, 0.57 16.14 C0.72 12.31, 2.23 7.92, 4.8 5.31 C7.38 2.71, 14.04 1.42, 16.03 0.49 C18.01 -0.45, 16.66 -0.53, 16.73 -0.31" stroke="#1e1e1e" stroke-width="2" fill="none"></path></g><g transform="translate(1278.6466459920296 295.39875037108504) rotate(0 155.859375 16.800000000000182)"><text x="0" y="27.0375" font-family="Cascadia, Segoe UI Emoji" font-size="28px" fill="#1e1e1e" text-anchor="start" style="white-space: pre;" direction="ltr" dominant-baseline="alphabetic">is_banned : Boolean</text></g><g transform="translate(1277.1816275172953 362.789600208871) rotate(0 131.25 16.800000000000182)"><text x="0" y="27.0375" font-family="Cascadia, Segoe UI Emoji" font-size="28px" fill="#1e1e1e" text-anchor="start" style="white-space: pre;" direction="ltr" dominant-baseline="alphabetic">active : Boolean</text></g><g stroke-linecap="round" transform="translate(1203.4369605230572 428.1228484356134) rotate(0 18.312730934180195 17.58022169681317)"><path d="M18.81 0.51 C22.65 0.47, 27.99 1.99, 30.99 4.45 C34 6.91, 36.4 11.46, 36.83 15.29 C37.26 19.12, 35.67 24.25, 33.55 27.45 C31.43 30.66, 27.75 33.44, 24.08 34.54 C20.42 35.63, 15.27 35.53, 11.56 34 C7.85 32.47, 3.61 28.84, 1.8 25.37 C-0.02 21.89, -0.33 16.77, 0.66 13.17 C1.64 9.57, 4.42 5.97, 7.72 3.78 C11.02 1.59, 18.13 0.49, 20.44 0.02 C22.75 -0.45, 21.49 0.63, 21.57 0.96 M15.43 0.87 C19.31 0.17, 25.34 0.5, 28.85 2.28 C32.35 4.06, 35.36 7.98, 36.44 11.56 C37.52 15.13, 36.97 20.17, 35.31 23.75 C33.65 27.34, 30 31.33, 26.49 33.06 C22.98 34.78, 17.93 34.96, 14.26 34.1 C10.58 33.24, 6.87 30.85, 4.41 27.89 C1.96 24.92, -0.45 19.92, -0.49 16.32 C-0.52 12.72, 1.4 9.04, 4.19 6.29 C6.98 3.54, 14.34 0.72, 16.27 -0.18 C18.19 -1.08, 15.88 0.57, 15.75 0.9" stroke="#1e1e1e" stroke-width="2" fill="none"></path></g><g transform="translate(1277.420393497145 433.9829223345505) rotate(0 229.6875 16.800000000000182)"><text x="0" y="27.0375" font-family="Cascadia, Segoe UI Emoji" font-size="28px" fill="#1e1e1e" text-anchor="start" style="white-space: pre;" direction="ltr" dominant-baseline="alphabetic">role : ENUM("ADMIN", "USER")</text></g><g stroke-linecap="round" transform="translate(907.1884693346424 690.3711722752678) rotate(0 122.89313796881652 85.20963378110946)"><path d="M32 0 C101.32 -0.72, 171.51 -3.33, 213.79 0 M32 0 C97.59 0.68, 164.5 0.59, 213.79 0 M213.79 0 C236.02 -1.1, 245.28 11.63, 245.79 32 M213.79 0 C237.36 1.61, 244.38 8.9, 245.79 32 M245.79 32 C245.74 65.81, 246.48 100.77, 245.79 138.42 M245.79 32 C245.67 71.15, 245.09 112.7, 245.79 138.42 M245.79 138.42 C247.63 161.07, 234.53 169.93, 213.79 170.42 M245.79 138.42 C247.5 161.64, 237.38 172.42, 213.79 170.42 M213.79 170.42 C171.07 169.48, 128.45 169.73, 32 170.42 M213.79 170.42 C171.76 170.93, 129.44 171.79, 32 170.42 M32 170.42 C11.64 170.63, 0.89 159.85, 0 138.42 M32 170.42 C9.91 170.22, 1.89 157.66, 0 138.42 M0 138.42 C0.83 109.67, 0.14 81.2, 0 32 M0 138.42 C-1.3 110.12, -1.04 81.95, 0 32 M0 32 C1.25 11.21, 10.1 -0.94, 32 0 M0 32 C-2.03 10.67, 11.2 2.05, 32 0" stroke="#1e1e1e" stroke-width="2" fill="none"></path></g><g transform="translate(960.0587562835053 753.9808060563773) rotate(0 73.828125 21.59999999999991)"><text x="0" y="34.762499999999996" font-family="Cascadia, Segoe UI Emoji" font-size="36px" fill="#1e1e1e" text-anchor="start" style="white-space: pre;" direction="ltr" dominant-baseline="alphabetic">Message</text></g><g stroke-linecap="round" transform="translate(1213.8432909991745 590.1160429014117) rotate(0 18.31273093418008 17.58022169681317)"><path d="M21.09 0.43 C24.84 0.81, 29.51 3.39, 32.06 6.15 C34.6 8.91, 36.2 13.18, 36.34 16.98 C36.48 20.79, 35.23 26.09, 32.89 29 C30.55 31.92, 26.27 33.81, 22.32 34.5 C18.37 35.19, 12.7 34.81, 9.2 33.12 C5.69 31.44, 2.66 27.93, 1.28 24.4 C-0.1 20.88, -0.34 15.59, 0.93 12 C2.2 8.41, 5.39 4.8, 8.91 2.86 C12.43 0.91, 19.77 0.71, 22.03 0.35 C24.3 -0.02, 22.7 0.44, 22.5 0.65 M20.42 -0.04 C24.13 0.21, 29.51 3.37, 32.33 6.28 C35.15 9.18, 37.33 13.86, 37.34 17.41 C37.36 20.96, 34.89 24.67, 32.41 27.59 C29.94 30.52, 26.33 33.94, 22.5 34.95 C18.66 35.96, 12.99 35.52, 9.41 33.68 C5.83 31.83, 2.38 27.34, 1.01 23.87 C-0.36 20.4, -0.14 16.48, 1.17 12.87 C2.49 9.26, 5.53 4.33, 8.89 2.22 C12.26 0.11, 19.36 0.5, 21.37 0.22 C23.38 -0.05, 21.06 0.29, 20.96 0.57" stroke="#1e1e1e" stroke-width="2" fill="none"></path></g><g stroke-linecap="round" transform="translate(1216.0408187112764 660.4369296886607) rotate(0 18.31273093418008 17.58022169681317)"><path d="M16.4 0.32 C20.02 -0.34, 24.96 0.72, 28.25 2.86 C31.54 5.01, 34.96 9.6, 36.15 13.19 C37.34 16.78, 37.1 21.02, 35.4 24.4 C33.71 27.78, 29.57 31.69, 25.98 33.46 C22.4 35.23, 17.66 35.94, 13.91 35.02 C10.17 34.1, 5.79 30.99, 3.5 27.92 C1.22 24.86, -0.12 20.39, 0.21 16.64 C0.55 12.9, 2.64 8.23, 5.5 5.44 C8.36 2.66, 15.4 0.84, 17.37 -0.07 C19.33 -0.99, 17.3 -0.43, 17.31 -0.05 M21.88 0.85 C25.76 1.36, 30.59 4.16, 32.97 6.81 C35.35 9.46, 36.22 13.08, 36.16 16.77 C36.1 20.47, 35.11 25.88, 32.61 28.98 C30.11 32.07, 25.11 34.77, 21.16 35.34 C17.21 35.91, 12.17 34.24, 8.9 32.4 C5.62 30.55, 2.74 27.81, 1.51 24.27 C0.28 20.73, 0.14 14.78, 1.52 11.16 C2.89 7.53, 6.37 4.32, 9.74 2.52 C13.1 0.71, 19.71 0.63, 21.69 0.32 C23.67 0, 21.75 0.36, 21.6 0.62" stroke="#1e1e1e" stroke-width="2" fill="none"></path></g><g stroke-linecap="round" transform="translate(1214.5758002365421 726.3627610517115) rotate(0 18.31273093418008 17.58022169681317)"><path d="M20.2 0 C23.96 0.24, 29.11 3.31, 31.9 6.03 C34.69 8.74, 36.83 12.59, 36.95 16.29 C37.06 19.98, 35 25.07, 32.59 28.2 C30.19 31.33, 26.26 34.23, 22.5 35.07 C18.74 35.91, 13.52 34.98, 10.05 33.26 C6.57 31.54, 3.13 28.22, 1.65 24.77 C0.17 21.32, 0.01 16.22, 1.16 12.56 C2.32 8.89, 5.33 4.88, 8.58 2.76 C11.83 0.63, 18.43 0.08, 20.66 -0.2 C22.89 -0.47, 21.89 0.79, 21.98 1.12 M17.93 0.69 C21.47 0.03, 25.68 0.64, 28.74 2.81 C31.8 4.97, 35.37 9.85, 36.28 13.7 C37.19 17.55, 36.05 22.65, 34.2 25.9 C32.36 29.15, 28.67 31.7, 25.21 33.21 C21.75 34.72, 17.07 36.04, 13.45 34.96 C9.84 33.87, 5.61 29.93, 3.51 26.72 C1.41 23.5, 0.42 19.3, 0.84 15.67 C1.27 12.03, 3.29 7.51, 6.07 4.91 C8.85 2.31, 15.71 0.83, 17.53 0.07 C19.35 -0.7, 16.9 0.15, 16.97 0.32" stroke="#1e1e1e" stroke-width="2" fill="none"></path></g><g stroke-linecap="round" transform="translate(1213.1107817618079 793.7536108894956) rotate(0 18.31273093418008 17.58022169681317)"><path d="M20.61 0.6 C24.44 0.75, 29.33 2.5, 31.93 5.16 C34.53 7.82, 36.02 12.71, 36.2 16.58 C36.39 20.45, 35.32 25.38, 33.05 28.4 C30.78 31.41, 26.38 33.79, 22.6 34.66 C18.81 35.52, 13.78 35.25, 10.33 33.58 C6.88 31.92, 3.46 28.18, 1.91 24.66 C0.36 21.15, 0.08 16.18, 1.04 12.49 C2.01 8.8, 4.31 4.49, 7.71 2.53 C11.12 0.56, 19.04 1.01, 21.48 0.68 C23.91 0.36, 22.44 0.3, 22.33 0.57 M21.58 -0.28 C25.18 0.16, 30.43 3.77, 32.85 6.91 C35.28 10.06, 36.33 14.94, 36.12 18.59 C35.9 22.24, 34.04 25.98, 31.57 28.79 C29.1 31.61, 25.02 34.97, 21.29 35.5 C17.55 36.03, 12.42 34.02, 9.15 31.97 C5.88 29.91, 2.9 26.64, 1.65 23.17 C0.4 19.7, 0.28 14.65, 1.67 11.15 C3.05 7.64, 6.62 3.94, 9.98 2.13 C13.33 0.32, 19.69 0.65, 21.79 0.3 C23.89 -0.05, 22.64 -0.22, 22.58 0.03" stroke="#1e1e1e" stroke-width="2" fill="none"></path></g><g transform="translate(1287.55923321063 588.2460798508791) rotate(0 90.234375 16.800000000000182)"><text x="0" y="27.0375" font-family="Cascadia, Segoe UI Emoji" font-size="28px" fill="#1e1e1e" text-anchor="start" style="white-space: pre;" direction="ltr" dominant-baseline="alphabetic">id : Number</text></g><g transform="translate(1288.55923321063 663.3669666381311) rotate(0 106.640625 16.800000000000182)"><text x="0" y="27.0375" font-family="Cascadia, Segoe UI Emoji" font-size="28px" fill="#1e1e1e" text-anchor="start" style="white-space: pre;" direction="ltr" dominant-baseline="alphabetic">sender : User</text></g><g transform="translate(1288.55923321063 732.2228349506486) rotate(0 106.640625 16.799999999999955)"><text x="0" y="27.0375" font-family="Cascadia, Segoe UI Emoji" font-size="28px" fill="#1e1e1e" text-anchor="start" style="white-space: pre;" direction="ltr" dominant-baseline="alphabetic">chat : Number</text></g><g transform="translate(1287.0942147358958 799.6136847884327) rotate(0 131.25 16.799999999999955)"><text x="0" y="27.0375" font-family="Cascadia, Segoe UI Emoji" font-size="28px" fill="#1e1e1e" text-anchor="start" style="white-space: pre;" direction="ltr" dominant-baseline="alphabetic">content : String</text></g><g stroke-linecap="round" transform="translate(1216.1355957222925 867.7847563230271) rotate(0 18.31273093418008 17.58022169681317)"><path d="M21.89 0.57 C25.66 1.02, 30.37 3.65, 32.87 6.5 C35.38 9.35, 37.11 13.99, 36.92 17.69 C36.73 21.38, 34.29 25.69, 31.72 28.64 C29.15 31.59, 25.26 34.74, 21.52 35.39 C17.79 36.04, 12.73 34.49, 9.29 32.55 C5.85 30.61, 2.19 27.21, 0.91 23.76 C-0.38 20.31, 0.11 15.49, 1.59 11.85 C3.07 8.22, 6.38 3.82, 9.79 1.94 C13.2 0.06, 19.79 0.78, 22.04 0.57 C24.28 0.35, 23.2 0.42, 23.25 0.64 M15.8 -0.33 C19.51 -1.21, 25.01 0.51, 28.37 2.53 C31.73 4.56, 34.72 8.28, 35.95 11.83 C37.19 15.38, 37.27 20.31, 35.78 23.81 C34.3 27.31, 30.42 31.11, 27.04 32.84 C23.67 34.57, 19.4 34.91, 15.55 34.17 C11.69 33.44, 6.57 31.18, 3.91 28.4 C1.24 25.63, -0.52 21.26, -0.45 17.52 C-0.39 13.79, 1.69 8.93, 4.29 6.01 C6.9 3.09, 13.3 0.86, 15.2 0 C17.09 -0.85, 15.72 0.51, 15.68 0.88" stroke="#1e1e1e" stroke-width="2" fill="none"></path></g><g stroke-linecap="round" transform="translate(1214.6705772475582 935.175606160813) rotate(0 18.31273093418008 17.58022169681317)"><path d="M18.58 0.05 C22.33 -0.26, 27.41 1.6, 30.29 3.93 C33.17 6.25, 35.15 10.21, 35.85 14.01 C36.55 17.81, 36.29 23.42, 34.49 26.73 C32.68 30.05, 28.76 32.62, 25.02 33.91 C21.28 35.21, 15.72 35.67, 12.04 34.51 C8.36 33.35, 4.81 30.32, 2.92 26.96 C1.03 23.6, 0.18 18.11, 0.69 14.33 C1.21 10.55, 2.93 6.73, 6.02 4.29 C9.11 1.85, 16.85 0.37, 19.23 -0.32 C21.6 -1.01, 20.34 -0.24, 20.24 0.15 M22.2 0.34 C25.89 0.85, 30.23 3.47, 32.69 6.34 C35.15 9.22, 37.06 13.85, 36.96 17.6 C36.86 21.34, 34.58 26.03, 32.11 28.8 C29.64 31.57, 25.99 33.59, 22.13 34.21 C18.27 34.82, 12.51 34.23, 8.93 32.49 C5.35 30.75, 1.98 27.26, 0.66 23.75 C-0.67 20.25, -0.42 15.07, 0.98 11.47 C2.37 7.86, 5.54 3.95, 9 2.13 C12.46 0.32, 19.8 0.78, 21.76 0.57 C23.71 0.35, 20.91 0.53, 20.73 0.87" stroke="#1e1e1e" stroke-width="2" fill="none"></path></g><g transform="translate(1290.1190286963804 873.6448302219642) rotate(0 131.25 16.799999999999955)"><text x="0" y="27.0375" font-family="Cascadia, Segoe UI Emoji" font-size="28px" fill="#1e1e1e" text-anchor="start" style="white-space: pre;" direction="ltr" dominant-baseline="alphabetic">content : String</text></g><g transform="translate(1288.654010221646 941.0356800597501) rotate(0 90.234375 16.799999999999955)"><text x="0" y="27.0375" font-family="Cascadia, Segoe UI Emoji" font-size="28px" fill="#1e1e1e" text-anchor="start" style="white-space: pre;" direction="ltr" dominant-baseline="alphabetic">date : Date</text></g><g stroke-linecap="round"><g transform="translate(253.86958078774637 254.47044672014) rotate(0 325.2341013910391 223.41531739699758)"><path d="M-1.08 -0.06 C107.43 74.5, 541.52 371.81, 650.05 446.32 M0.56 -1.13 C108.96 73.67, 540.79 372.67, 648.89 447.6" stroke="#1e1e1e" stroke-width="2" fill="none"></path></g></g><mask></mask><g stroke-linecap="round"><g transform="translate(1015.6791876496395 280.84077926535974) rotate(0 4.395055424203292 200.70753103861443)"><path d="M0.9 -1.02 C2.52 65.76, 7.34 334.43, 8.81 401.38 M-0.09 1.06 C1.46 67.98, 6.28 336.14, 7.87 402.9" stroke="#1e1e1e" stroke-width="2" fill="none"></path></g></g><mask></mask></svg>