<svg version="1.1" xmlns="http://www.w3.org/2000/svg" viewBox="0 0 3262.162765491924 2029.3401551366787" width="3262.162765491924" height="2029.3401551366787">
  <!-- svg-source:excalidraw -->
  
  <defs>
    <style class="style-fonts">
      @font-face {
        font-family: "Virgil";
        src: url("https://excalidraw.com/Virgil.woff2");
      }
      @font-face {
        font-family: "Cascadia";
        src: url("https://excalidraw.com/Cascadia.woff2");
      }
      @font-face {
        font-family: "Assistant";
        src: url("https://excalidraw.com/Assistant-Regular.woff2");
      }
    </style>
    
  </defs>
  <g stroke-linecap="round" transform="translate(10 493.5579365339918) rotate(0 416.90054836433603 172.51057173696654)"><path d="M32 0 C247.56 -0.92, 463.5 -0.54, 801.8 0 M32 0 C306.02 -1.06, 580.21 -1.37, 801.8 0 M801.8 0 C822.32 -0.98, 832.8 9.39, 833.8 32 M801.8 0 C822.23 1.48, 832.3 10.3, 833.8 32 M833.8 32 C833.96 95.25, 834.23 159.21, 833.8 313.02 M833.8 32 C832.11 133.93, 831.07 234.59, 833.8 313.02 M833.8 313.02 C832.71 333.7, 824.79 345.96, 801.8 345.02 M833.8 313.02 C833.13 336.02, 825.1 345.6, 801.8 345.02 M801.8 345.02 C606.32 347.23, 409.18 347.68, 32 345.02 M801.8 345.02 C563.17 344.62, 324.73 344.65, 32 345.02 M32 345.02 C12.08 344.37, -1.81 334.12, 0 313.02 M32 345.02 C9 343.82, -0.45 335.84, 0 313.02 M0 313.02 C0.99 222.91, -0.09 135.96, 0 32 M0 313.02 C-1.05 235.04, -0.77 157.49, 0 32 M0 32 C-0.32 9.78, 11.48 0.62, 32 0 M0 32 C0.43 12.12, 8.4 -2.06, 32 0" stroke="#1e1e1e" stroke-width="2" fill="none"></path></g><g transform="translate(363.61929836433603 644.4685082709584) rotate(0 63.28125 21.59999999999991)"><text x="63.28125" y="34.762499999999996" font-family="Cascadia, Segoe UI Emoji" font-size="36px" fill="#1e1e1e" text-anchor="middle" style="white-space: pre;" direction="ltr" dominant-baseline="alphabetic">Modelo</text></g><g stroke-linecap="round"><g transform="translate(352.4073469324642 488.3303434510535) rotate(0 -49.66213428791468 -84.94838759774848)"><path d="M-1 0.37 C-17.55 -27.87, -82.79 -140.56, -99.07 -168.97 M0.68 -0.49 C-16.03 -29.09, -83.26 -142.54, -99.88 -170.6" stroke="#1e1e1e" stroke-width="2" fill="none"></path></g></g><mask></mask><g stroke-linecap="round"><g transform="translate(519.6903255864925 488.3303434510535) rotate(0 50.969032558649246 -84.94838759774848)"><path d="M0.92 -0.59 C17.83 -29.13, 85.22 -142.59, 102.01 -170.69 M-0.05 1.72 C16.65 -26.73, 84.3 -140.76, 101.1 -169.57" stroke="#1e1e1e" stroke-width="2" fill="none"></path></g></g><mask></mask><g stroke-linecap="round" transform="translate(187.73816481990502 255.70245126029567) rotate(0 36.5931515805687 36.5931515805687)"><path d="M46.74 0.66 C53.2 2.2, 61.05 9.65, 65.44 15.41 C69.83 21.16, 72.9 28.03, 73.08 35.19 C73.27 42.36, 70.67 52.44, 66.57 58.39 C62.48 64.34, 55.19 68.53, 48.51 70.89 C41.83 73.25, 33.3 74.46, 26.5 72.55 C19.7 70.65, 12.15 65.34, 7.69 59.47 C3.23 53.61, -0.19 44.62, -0.26 37.36 C-0.32 30.11, 3.07 21.99, 7.3 15.94 C11.54 9.9, 18.01 3.2, 25.14 1.11 C32.28 -0.97, 45.39 2.7, 50.12 3.43 C54.85 4.15, 53.63 5.09, 53.52 5.47 M46.07 0.77 C52.58 1.72, 59.62 5.81, 64.17 11.26 C68.72 16.7, 72.81 26.12, 73.38 33.46 C73.95 40.81, 71.51 49.02, 67.59 55.32 C63.67 61.62, 56.52 68.44, 49.87 71.28 C43.22 74.11, 34.7 74.11, 27.69 72.31 C20.68 70.51, 12.27 66.03, 7.81 60.47 C3.35 54.91, 1.51 46.23, 0.93 38.94 C0.35 31.65, 0.57 22.47, 4.31 16.71 C8.05 10.94, 16.44 6.78, 23.36 4.34 C30.27 1.91, 42.27 2.71, 45.82 2.1 C49.36 1.49, 44.87 0.37, 44.63 0.68" stroke="#1e1e1e" stroke-width="2" fill="none"></path></g><g transform="translate(67.50352391232218 161.60577576740525) rotate(0 94.921875 21.59999999999991)"><text x="0" y="34.762499999999996" font-family="Cascadia, Segoe UI Emoji" font-size="36px" fill="#1e1e1e" text-anchor="start" style="white-space: pre;" direction="ltr" dominant-baseline="alphabetic">Entidades</text></g><g stroke-linecap="round" transform="translate(603.3318149135064 247.8610616358883) rotate(0 36.5931515805687 36.5931515805687)"><path d="M29.49 -0.09 C35.86 -1.79, 45.15 0.26, 51.74 3.31 C58.33 6.35, 65.4 11.9, 69.03 18.2 C72.65 24.5, 74.55 33.72, 73.5 41.1 C72.45 48.47, 67.72 57.11, 62.73 62.47 C57.74 67.82, 50.51 71.98, 43.55 73.23 C36.59 74.48, 27.48 73.22, 20.97 69.95 C14.45 66.68, 7.78 60.03, 4.48 53.61 C1.17 47.19, 0.14 38.39, 1.13 31.41 C2.12 24.43, 5.02 16.87, 10.4 11.73 C15.79 6.6, 29.07 2.3, 33.44 0.6 C37.82 -1.11, 36.57 0.92, 36.66 1.49 M52.35 2.06 C58.68 4.54, 63.11 11.8, 66.78 18.39 C70.45 24.98, 74.61 34.47, 74.36 41.6 C74.12 48.72, 70.2 56.17, 65.31 61.14 C60.42 66.1, 52.14 70.06, 45.03 71.4 C37.91 72.73, 29.23 72.03, 22.61 69.14 C15.99 66.26, 9.06 60.28, 5.31 54.09 C1.56 47.9, -0.43 39.11, 0.11 31.99 C0.66 24.87, 3.93 16.58, 8.57 11.38 C13.21 6.17, 21.07 1.9, 27.96 0.75 C34.84 -0.41, 46.07 3.9, 49.89 4.46 C53.72 5.03, 50.94 4.04, 50.9 4.13" stroke="#1e1e1e" stroke-width="2" fill="none"></path></g><g transform="translate(652.9939492014212 164.21957230887347) rotate(0 116.015625 21.59999999999991)"><text x="0" y="34.762499999999996" font-family="Cascadia, Segoe UI Emoji" font-size="36px" fill="#1e1e1e" text-anchor="start" style="white-space: pre;" direction="ltr" dominant-baseline="alphabetic">Repositorio</text></g><g stroke-linecap="round"><g transform="translate(435.6430551640485 839.9136299068359) rotate(0 365.5221094462354 266.6333624016627)"><path d="M1.19 -0.41 C122.84 88.66, 608.9 445.12, 730.41 534.21 M0.36 -1.67 C122.36 87.09, 610.73 443.59, 732.79 532.58" stroke="#1e1e1e" stroke-width="2" fill="none"></path></g></g><mask></mask><g stroke-linecap="round" transform="translate(1174.9135014327887 1320.7355168364566) rotate(0 435.26688156605405 187.55402213821844)"><path d="M32 0 C325.85 2.44, 620.4 2.22, 838.53 0 M32 0 C293.31 0.58, 555 -0.05, 838.53 0 M838.53 0 C859.43 0.14, 869.1 10.51, 870.53 32 M838.53 0 C861.05 1.69, 872.11 9.89, 870.53 32 M870.53 32 C869.37 148.22, 867.85 262.22, 870.53 343.11 M870.53 32 C871.05 131.49, 870.88 230.8, 870.53 343.11 M870.53 343.11 C871.6 364.31, 859.35 376.73, 838.53 375.11 M870.53 343.11 C872.04 364.77, 859.9 373.37, 838.53 375.11 M838.53 375.11 C625.22 374.75, 410.73 373.61, 32 375.11 M838.53 375.11 C651.24 377.07, 464.16 377.65, 32 375.11 M32 375.11 C9.99 374.38, -0.15 366.25, 0 343.11 M32 375.11 C12.8 377.35, -1.4 365.21, 0 343.11 M0 343.11 C1.12 263.5, -0.6 185.61, 0 32 M0 343.11 C-0.27 229.49, -0.2 115.27, 0 32 M0 32 C-1.97 12.18, 10.66 1.56, 32 0 M0 32 C-0.12 8.66, 8.48 -1.13, 32 0" stroke="#1e1e1e" stroke-width="2" fill="none"></path></g><g transform="translate(1557.4460079988428 1486.689538974675) rotate(0 52.734375 21.59999999999991)"><text x="52.734375" y="34.762499999999996" font-family="Cascadia, Segoe UI Emoji" font-size="36px" fill="#1e1e1e" text-anchor="middle" style="white-space: pre;" direction="ltr" dominant-baseline="alphabetic">Vista</text></g><g stroke-linecap="round"><g transform="translate(1634.9516689416266 1692.3048059782095) rotate(0 -1.7693775673415075 61.9282148569589)"><path d="M0.04 0.3 C-0.72 20.66, -3.6 102.08, -4.04 122.79 M-1.41 -0.59 C-2.4 19.82, -5.01 103.24, -5.25 123.76" stroke="#1e1e1e" stroke-width="2" fill="none"></path></g></g><mask></mask><g stroke-linecap="round" transform="translate(1592.4866073254263 1816.1612356921273) rotate(0 40.695684048858766 37.156928914175296)"><path d="M24.09 3.52 C30.39 -0.07, 39.47 -0.87, 47.18 0.37 C54.89 1.61, 64.89 5.62, 70.37 10.97 C75.85 16.32, 79.07 25.01, 80.05 32.47 C81.04 39.94, 79.86 49.39, 76.26 55.75 C72.67 62.1, 65.81 67.51, 58.48 70.6 C51.16 73.7, 40.22 75.73, 32.3 74.32 C24.38 72.91, 16.17 67.71, 10.97 62.15 C5.77 56.6, 1.98 48.02, 1.1 41 C0.23 33.97, 1.03 26.69, 5.71 20 C10.39 13.31, 24.49 4.05, 29.17 0.85 C33.86 -2.35, 33.65 0.06, 33.81 0.78 M28.62 2.1 C35.65 -0.57, 46.44 -1.13, 53.85 1.12 C61.26 3.37, 68.6 9.36, 73.07 15.57 C77.54 21.79, 80.82 30.95, 80.69 38.41 C80.55 45.88, 77.07 54.76, 72.27 60.37 C67.48 65.98, 59.5 70.37, 51.9 72.09 C44.31 73.82, 34.17 73.13, 26.71 70.72 C19.25 68.32, 11.74 63.48, 7.16 57.67 C2.58 51.87, -0.89 43.38, -0.79 35.89 C-0.7 28.41, 2.87 18.71, 7.75 12.76 C12.63 6.82, 24.67 2.12, 28.46 0.23 C32.25 -1.65, 30.22 0.7, 30.49 1.45" stroke="#1e1e1e" stroke-width="2" fill="none"></path></g><g transform="translate(1581.8703419213768 1932.9401551366786) rotate(0 52.734375 43.200000000000045)"><text x="0" y="34.762499999999996" font-family="Cascadia, Segoe UI Emoji" font-size="36px" fill="#1e1e1e" text-anchor="start" style="white-space: pre;" direction="ltr" dominant-baseline="alphabetic">React</text><text x="0" y="77.96249999999999" font-family="Cascadia, Segoe UI Emoji" font-size="36px" fill="#1e1e1e" text-anchor="start" style="white-space: pre;" direction="ltr" dominant-baseline="alphabetic"></text></g><g stroke-linecap="round" transform="translate(2381.629002359816 439.5854883002976) rotate(0 435.26688156605405 187.55402213821844)"><path d="M32 0 C248.14 -3.27, 463.43 -3.57, 838.53 0 M32 0 C285.58 -1.58, 539.86 -1.93, 838.53 0 M838.53 0 C861.66 -0.53, 871.46 9.3, 870.53 32 M838.53 0 C860.45 0.48, 871.83 11.4, 870.53 32 M870.53 32 C872.73 154.02, 872.75 279.06, 870.53 343.11 M870.53 32 C870.25 105.51, 869.47 180.89, 870.53 343.11 M870.53 343.11 C868.87 362.73, 859.95 374.17, 838.53 375.11 M870.53 343.11 C869.61 366.42, 860.32 373.15, 838.53 375.11 M838.53 375.11 C608.8 376.1, 378.6 376.99, 32 375.11 M838.53 375.11 C668.78 372.56, 499.03 372.3, 32 375.11 M32 375.11 C9.99 374.74, 1.45 362.55, 0 343.11 M32 375.11 C12.59 375.92, -0.33 364.19, 0 343.11 M0 343.11 C0.57 226.19, 0.6 108.81, 0 32 M0 343.11 C-0.53 251.74, -0.16 160.41, 0 32 M0 32 C1.06 10.21, 9.2 -1.79, 32 0 M0 32 C1.03 11.72, 10.52 -1.84, 32 0" stroke="#1e1e1e" stroke-width="2" fill="none"></path></g><g transform="translate(2700.8802589258703 605.5395104385161) rotate(0 116.015625 21.59999999999991)"><text x="116.015625" y="34.762499999999996" font-family="Cascadia, Segoe UI Emoji" font-size="36px" fill="#1e1e1e" text-anchor="middle" style="white-space: pre;" direction="ltr" dominant-baseline="alphabetic">Controlador</text></g><g stroke-linecap="round"><g transform="translate(2816.8958839258703 436.0467331656155) rotate(0 -1.7693775673415075 -53.08132702025068)"><path d="M-0.07 -1.11 C-0.89 -18.84, -3.15 -88.22, -3.92 -105.56 M-1.56 0.92 C-2.66 -17.24, -4.93 -89.38, -5.06 -107.36" stroke="#1e1e1e" stroke-width="2" fill="none"></path></g></g><mask></mask><g stroke-linecap="round" transform="translate(2770.8920671749875 248.4927110273975) rotate(0 35.387551346833334 38.926306481516804)"><path d="M27.45 1.13 C33.91 -0.84, 43.94 0.15, 50.24 3.39 C56.53 6.63, 61.71 13.76, 65.23 20.56 C68.76 27.36, 71.89 36.67, 71.36 44.19 C70.84 51.71, 66.92 60.05, 62.09 65.7 C57.25 71.34, 49.27 76.64, 42.33 78.06 C35.39 79.48, 26.89 77.39, 20.45 74.22 C14.02 71.05, 7.05 65.72, 3.71 59.02 C0.37 52.31, -0.61 41.62, 0.41 34.01 C1.43 26.4, 4.41 18.86, 9.81 13.33 C15.21 7.8, 28.49 2.79, 32.81 0.81 C37.14 -1.16, 35.64 0.85, 35.77 1.46 M24.31 1.36 C30.5 -0.9, 41.4 -0.51, 48.22 2.21 C55.04 4.93, 61.51 11.44, 65.23 17.68 C68.95 23.93, 71.13 32.31, 70.56 39.68 C70 47.05, 65.88 55.83, 61.84 61.89 C57.8 67.94, 52.7 73.74, 46.31 76.02 C39.92 78.29, 30.07 78.29, 23.52 75.56 C16.97 72.84, 11.11 66.19, 7.03 59.66 C2.96 53.13, -0.81 44.07, -0.95 36.36 C-1.08 28.65, 1.8 19.26, 6.24 13.4 C10.67 7.54, 22.61 3.05, 25.68 1.22 C28.75 -0.61, 24.37 1.77, 24.65 2.42" stroke="#1e1e1e" stroke-width="2" fill="none"></path></g><g transform="translate(2756.7370466362536 163.56258779499694) rotate(0 42.1875 21.59999999999991)"><text x="0" y="34.762499999999996" font-family="Cascadia, Segoe UI Emoji" font-size="36px" fill="#1e1e1e" text-anchor="start" style="white-space: pre;" direction="ltr" dominant-baseline="alphabetic">Http</text></g><g stroke-linecap="round"><g transform="translate(2845.205925003337 807.6160223073684) rotate(0 0 47.77319431822525)"><path d="M-1.07 -1.16 C-1.24 14.59, -0.81 79.25, -0.76 95.25 M0.57 0.84 C0.76 16.71, 1.36 80.81, 1.56 96.63" stroke="#1e1e1e" stroke-width="2" fill="none"></path></g></g><mask></mask><g stroke-linecap="round" transform="translate(2809.8183736565034 906.7011660785029) rotate(0 40.695684048858766 46.00381675088374)"><path d="M40.92 0.33 C48.06 -0.31, 57.65 3.05, 63.88 7.6 C70.11 12.15, 75.53 20, 78.31 27.62 C81.08 35.23, 81.86 45.32, 80.53 53.3 C79.2 61.28, 75 69.41, 70.32 75.5 C65.64 81.59, 59.52 87.36, 52.45 89.85 C45.39 92.33, 35.13 92.83, 27.92 90.42 C20.71 88.01, 13.82 81.75, 9.19 75.4 C4.56 69.05, 1.11 60.41, 0.13 52.34 C-0.85 44.27, 0.12 34.68, 3.29 27 C6.46 19.32, 12.31 10.77, 19.17 6.25 C26.03 1.72, 40.03 0.73, 44.46 -0.13 C48.88 -0.98, 46.01 0.45, 45.74 1.11 M49 1.31 C56.35 2, 65.98 6.6, 71.02 12.21 C76.06 17.82, 77.67 26.44, 79.22 34.97 C80.76 43.5, 82.58 55.37, 80.29 63.39 C78 71.41, 71.81 78.49, 65.49 83.08 C59.16 87.67, 49.64 90.52, 42.35 90.94 C35.07 91.35, 27.88 89.56, 21.76 85.56 C15.65 81.56, 9.25 74.16, 5.67 66.97 C2.09 59.77, 0.01 50.67, 0.28 42.37 C0.56 34.07, 2.88 23.94, 7.34 17.16 C11.8 10.37, 20.14 4.27, 27.05 1.66 C33.97 -0.94, 45.3 1.49, 48.85 1.55 C52.41 1.6, 48.32 1.34, 48.37 1.99" stroke="#1e1e1e" stroke-width="2" fill="none"></path></g><g transform="translate(2756.7370466362536 1027.0188406577377) rotate(0 94.921875 21.59999999999991)"><text x="0" y="34.762499999999996" font-family="Cascadia, Segoe UI Emoji" font-size="36px" fill="#1e1e1e" text-anchor="start" style="white-space: pre;" direction="ltr" dominant-baseline="alphabetic">Websocket</text></g><g stroke-linecap="round"><g transform="translate(2056.0635299689475 1451.6694568197408) rotate(0 291.9472986113774 -309.6410742847943)"><path d="M-0.94 -0.48 C96.22 -103.58, 485.84 -515.93, 583.15 -619.25 M0.77 -1.77 C98.3 -104.61, 488.05 -514.72, 585.46 -617.7" stroke="#1e1e1e" stroke-width="2" fill="none"></path></g></g><mask></mask><g stroke-linecap="round"><g transform="translate(2371.0127369557667 595.2907142263666) rotate(0 -291.9472986113776 -1.7693775673415075)"><path d="M1.16 -0.14 C-96.3 -0.94, -486.98 -3.52, -584.54 -4.13 M0.3 -1.25 C-96.78 -1.96, -484.6 -2.67, -582.16 -2.9" stroke="#1e1e1e" stroke-width="2" fill="none"></path></g></g><mask></mask><g stroke-linecap="round" transform="translate(1394.316319783158 421.8917126268825) rotate(0 205.247797811635 187.554022138218)"><path d="M257.5 47 C282.98 70.25, 306.47 92.47, 359 141 M257.5 47 C285.84 72.72, 314.36 97.97, 359 141 M359 141 C409.07 189.92, 409.19 188.82, 359 235 M359 141 C409 186.18, 409.73 189.88, 359 235 M359 235 C318.2 269.24, 281.17 306, 257.5 328.11 M359 235 C330.43 261.98, 300.38 289.53, 257.5 328.11 M257.5 328.11 C206.39 373.16, 205.8 374.53, 154.5 328.11 M257.5 328.11 C206.08 377.06, 204.71 373.98, 154.5 328.11 M154.5 328.11 C120.63 299.42, 85.37 265.31, 51.5 235 M154.5 328.11 C128.35 304.67, 103.33 282.05, 51.5 235 M51.5 235 C-0.39 186.95, 1.2 186.49, 51.5 141 M51.5 235 C1.38 187.19, 0.31 189.94, 51.5 141 M51.5 141 C92.62 103.47, 132.49 64.77, 154.5 47 M51.5 141 C75.17 118.63, 99.32 96.1, 154.5 47 M154.5 47 C205.27 0.72, 205.56 1.44, 257.5 47 M154.5 47 C207.19 0.3, 205.33 0.68, 257.5 47" stroke="#1e1e1e" stroke-width="2" fill="none"></path></g><g transform="translate(1504.5183436889754 588.0687236959911) rotate(0 94.921875 21.59999999999991)"><text x="94.921875" y="34.762499999999996" font-family="Cascadia, Segoe UI Emoji" font-size="36px" fill="#1e1e1e" text-anchor="middle" style="white-space: pre;" direction="ltr" dominant-baseline="alphabetic">Servicios</text></g><g stroke-linecap="round"><g transform="translate(1404.9325851872084 602.3682244957336) rotate(0 -281.33103320732744 28.31004107746685)"><path d="M-0.46 -0.38 C-94.3 9.09, -469.75 48.25, -563.57 57.72 M1.5 -1.62 C-91.92 7.45, -467.61 46.3, -561.34 56.17" stroke="#1e1e1e" stroke-width="2" fill="none"></path></g></g><mask></mask><g stroke-linecap="round"><g transform="translate(1601.018774165684 436.0488362594788) rotate(0 -2.6137965414693554 -129.38292880272502)"><path d="M-0.92 -0.77 C-1.63 -44.05, -3.74 -216.11, -4.34 -258.92 M0.8 1.43 C0.02 -41.72, -3.87 -213.99, -4.82 -257.47" stroke="#1e1e1e" stroke-width="2" fill="none"></path></g></g><mask></mask><g stroke-linecap="round" transform="translate(1559.1980295021765 85.80009970260744) rotate(0 49.662134287914796 40.51384639277239)"><path d="M66.5 3.38 C74.72 5.19, 83.61 10.04, 88.99 15.81 C94.37 21.58, 98.15 30.8, 98.8 37.98 C99.45 45.15, 97.07 52.5, 92.88 58.88 C88.68 65.26, 81.52 72.55, 73.63 76.27 C65.73 79.99, 54.57 81.76, 45.53 81.19 C36.49 80.62, 26.51 77.15, 19.37 72.87 C12.24 68.59, 5.71 62.19, 2.73 55.5 C-0.24 48.82, -0.28 39.98, 1.51 32.76 C3.31 25.54, 7.36 17.61, 13.5 12.18 C19.64 6.76, 27.79 1.09, 38.36 0.22 C48.93 -0.65, 68.85 4.72, 76.93 6.96 C85.02 9.2, 87.28 13.23, 86.88 13.68 M24.75 4.98 C31.64 1.1, 43.71 0.28, 53.04 0.77 C62.38 1.26, 73.47 3.64, 80.75 7.93 C88.03 12.21, 93.65 19.44, 96.74 26.47 C99.83 33.49, 101.3 42.86, 99.3 50.09 C97.3 57.32, 91.29 64.9, 84.75 69.85 C78.21 74.79, 68.94 78.46, 60.04 79.77 C51.14 81.09, 39.52 80.39, 31.34 77.73 C23.16 75.07, 15.93 69.76, 10.95 63.82 C5.96 57.87, 2.29 48.97, 1.42 42.05 C0.56 35.13, 1.78 28.47, 5.75 22.28 C9.73 16.09, 21.6 7.72, 25.28 4.9 C28.97 2.09, 27.25 4.65, 27.88 5.38" stroke="#1e1e1e" stroke-width="2" fill="none"></path></g><g transform="translate(1467.7151505507552 10) rotate(0 147.65625 21.59999999999991)"><text x="0" y="34.762499999999996" font-family="Cascadia, Segoe UI Emoji" font-size="36px" fill="#1e1e1e" text-anchor="start" style="white-space: pre;" direction="ltr" dominant-baseline="alphabetic">Microservicios</text></g></svg>